{
  "header": {
    "PPQ": 256,
    "timeSignature": [
      4,
      4
    ],
    "bpm": 100,
    "name": ""
  },
  "startTime": 0,
  "duration": 86.39999999999992,
  "tracks": [
    {
      "startTime": 0,
      "duration": 0,
      "length": 0,
      "notes": [],
      "controlChanges": {},
      "id": 0
    },
    {
      "startTime": 0,
      "duration": 0,
      "length": 0,
      "notes": [],
      "controlChanges": {},
      "id": 1
    },
    {
      "startTime": 0,
      "duration": 86.39999999999992,
      "length": 954,
      "notes": [
        {
          "name": "F4",
          "midi": 65,
          "time": 0,
          "velocity": 0.5905511811023622,
          "duration": 0.3
        },
        {
          "name": "A4",
          "midi": 69,
          "time": 0,
          "velocity": 0.5905511811023622,
          "duration": 0.3
        },
        {
          "name": "C5",
          "midi": 72,
          "time": 0,
          "velocity": 0.5905511811023622,
          "duration": 0.3
        },
        {
          "name": "D#5",
          "midi": 75,
          "time": 0,
          "velocity": 0.5905511811023622,
          "duration": 0.3
        },
        {
          "name": "F2",
          "midi": 41,
          "time": 0,
          "velocity": 0.5511811023622047,
          "duration": 0.3
        },
        {
          "name": "F4",
          "midi": 65,
          "time": 0.36093749999999997,
          "velocity": 0.5669291338582677,
          "duration": 0.2390625
        },
        {
          "name": "A4",
          "midi": 69,
          "time": 0.36093749999999997,
          "velocity": 0.5669291338582677,
          "duration": 0.2390625
        },
        {
          "name": "C5",
          "midi": 72,
          "time": 0.36093749999999997,
          "velocity": 0.5669291338582677,
          "duration": 0.2390625
        },
        {
          "name": "D#5",
          "midi": 75,
          "time": 0.36093749999999997,
          "velocity": 0.5669291338582677,
          "duration": 0.2390625
        },
        {
          "name": "F2",
          "midi": 41,
          "time": 0.36093749999999997,
          "velocity": 0.5590551181102362,
          "duration": 0.2390625
        },
        {
          "name": "F4",
          "midi": 65,
          "time": 0.6,
          "velocity": 0.6535433070866141,
          "duration": 0.29999999999999993
        },
        {
          "name": "A4",
          "midi": 69,
          "time": 0.6,
          "velocity": 0.6535433070866141,
          "duration": 0.29999999999999993
        },
        {
          "name": "C5",
          "midi": 72,
          "time": 0.6,
          "velocity": 0.6535433070866141,
          "duration": 0.29999999999999993
        },
        {
          "name": "D#5",
          "midi": 75,
          "time": 0.6,
          "velocity": 0.6535433070866141,
          "duration": 0.29999999999999993
        },
        {
          "name": "C3",
          "midi": 48,
          "time": 0.6,
          "velocity": 0.6929133858267716,
          "duration": 0.29999999999999993
        },
        {
          "name": "F4",
          "midi": 65,
          "time": 0.9609374999999999,
          "velocity": 0.5590551181102362,
          "duration": 0.23906250000000007
        },
        {
          "name": "A4",
          "midi": 69,
          "time": 0.9609374999999999,
          "velocity": 0.5590551181102362,
          "duration": 0.23906250000000007
        },
        {
          "name": "C5",
          "midi": 72,
          "time": 0.9609374999999999,
          "velocity": 0.5590551181102362,
          "duration": 0.23906250000000007
        },
        {
          "name": "D#5",
          "midi": 75,
          "time": 0.9609374999999999,
          "velocity": 0.5590551181102362,
          "duration": 0.23906250000000007
        },
        {
          "name": "C3",
          "midi": 48,
          "time": 0.9609374999999999,
          "velocity": 0.5511811023622047,
          "duration": 0.23906250000000007
        },
        {
          "name": "F4",
          "midi": 65,
          "time": 1.2,
          "velocity": 0.5905511811023622,
          "duration": 0.30000000000000004
        },
        {
          "name": "A4",
          "midi": 69,
          "time": 1.2,
          "velocity": 0.5905511811023622,
          "duration": 0.30000000000000004
        },
        {
          "name": "C5",
          "midi": 72,
          "time": 1.2,
          "velocity": 0.5905511811023622,
          "duration": 0.30000000000000004
        },
        {
          "name": "D#5",
          "midi": 75,
          "time": 1.2,
          "velocity": 0.5905511811023622,
          "duration": 0.30000000000000004
        },
        {
          "name": "D#3",
          "midi": 51,
          "time": 1.2,
          "velocity": 0.6614173228346457,
          "duration": 0.6000000000000001
        },
        {
          "name": "F4",
          "midi": 65,
          "time": 1.5609375,
          "velocity": 0.5669291338582677,
          "duration": 0.23906249999999996
        },
        {
          "name": "A4",
          "midi": 69,
          "time": 1.5609375,
          "velocity": 0.5669291338582677,
          "duration": 0.23906249999999996
        },
        {
          "name": "C5",
          "midi": 72,
          "time": 1.5609375,
          "velocity": 0.5669291338582677,
          "duration": 0.23906249999999996
        },
        {
          "name": "D#5",
          "midi": 75,
          "time": 1.5609375,
          "velocity": 0.5669291338582677,
          "duration": 0.23906249999999996
        },
        {
          "name": "F4",
          "midi": 65,
          "time": 1.8,
          "velocity": 0.6456692913385826,
          "duration": 0.30000000000000004
        },
        {
          "name": "A4",
          "midi": 69,
          "time": 1.8,
          "velocity": 0.6456692913385826,
          "duration": 0.30000000000000004
        },
        {
          "name": "C5",
          "midi": 72,
          "time": 1.8,
          "velocity": 0.6456692913385826,
          "duration": 0.30000000000000004
        },
        {
          "name": "D#5",
          "midi": 75,
          "time": 1.8,
          "velocity": 0.6456692913385826,
          "duration": 0.30000000000000004
        },
        {
          "name": "F3",
          "midi": 53,
          "time": 1.8,
          "velocity": 0.6692913385826772,
          "duration": 0.6000000000000003
        },
        {
          "name": "F4",
          "midi": 65,
          "time": 2.1609375,
          "velocity": 0.5984251968503937,
          "duration": 0.23906250000000018
        },
        {
          "name": "A4",
          "midi": 69,
          "time": 2.1609375,
          "velocity": 0.5984251968503937,
          "duration": 0.23906250000000018
        },
        {
          "name": "C5",
          "midi": 72,
          "time": 2.1609375,
          "velocity": 0.5984251968503937,
          "duration": 0.23906250000000018
        },
        {
          "name": "D#5",
          "midi": 75,
          "time": 2.1609375,
          "velocity": 0.5984251968503937,
          "duration": 0.23906250000000018
        },
        {
          "name": "F4",
          "midi": 65,
          "time": 2.4000000000000004,
          "velocity": 0.5984251968503937,
          "duration": 0.2999999999999998
        },
        {
          "name": "G#4",
          "midi": 68,
          "time": 2.4000000000000004,
          "velocity": 0.5984251968503937,
          "duration": 0.2999999999999998
        },
        {
          "name": "A#4",
          "midi": 70,
          "time": 2.4000000000000004,
          "velocity": 0.5984251968503937,
          "duration": 0.2999999999999998
        },
        {
          "name": "D5",
          "midi": 74,
          "time": 2.4000000000000004,
          "velocity": 0.5984251968503937,
          "duration": 0.2999999999999998
        },
        {
          "name": "A#2",
          "midi": 46,
          "time": 2.4000000000000004,
          "velocity": 0.5748031496062992,
          "duration": 0.2999999999999998
        },
        {
          "name": "F4",
          "midi": 65,
          "time": 2.7609375000000003,
          "velocity": 0.5511811023622047,
          "duration": 0.23906250000000018
        },
        {
          "name": "G#4",
          "midi": 68,
          "time": 2.7609375000000003,
          "velocity": 0.5511811023622047,
          "duration": 0.23906250000000018
        },
        {
          "name": "A#4",
          "midi": 70,
          "time": 2.7609375000000003,
          "velocity": 0.5511811023622047,
          "duration": 0.23906250000000018
        },
        {
          "name": "D5",
          "midi": 74,
          "time": 2.7609375000000003,
          "velocity": 0.5511811023622047,
          "duration": 0.23906250000000018
        },
        {
          "name": "A#2",
          "midi": 46,
          "time": 2.7609375000000003,
          "velocity": 0.6141732283464567,
          "duration": 0.23906250000000018
        },
        {
          "name": "F4",
          "midi": 65,
          "time": 3.0000000000000004,
          "velocity": 0.5984251968503937,
          "duration": 0.2999999999999998
        },
        {
          "name": "G#4",
          "midi": 68,
          "time": 3.0000000000000004,
          "velocity": 0.5984251968503937,
          "duration": 0.2999999999999998
        },
        {
          "name": "A#4",
          "midi": 70,
          "time": 3.0000000000000004,
          "velocity": 0.5984251968503937,
          "duration": 0.2999999999999998
        },
        {
          "name": "D5",
          "midi": 74,
          "time": 3.0000000000000004,
          "velocity": 0.5984251968503937,
          "duration": 0.2999999999999998
        },
        {
          "name": "F3",
          "midi": 53,
          "time": 3.0000000000000004,
          "velocity": 0.7086614173228346,
          "duration": 0.2999999999999998
        },
        {
          "name": "F4",
          "midi": 65,
          "time": 3.3609375000000004,
          "velocity": 0.5669291338582677,
          "duration": 0.23906250000000018
        },
        {
          "name": "G#4",
          "midi": 68,
          "time": 3.3609375000000004,
          "velocity": 0.5669291338582677,
          "duration": 0.23906250000000018
        },
        {
          "name": "A#4",
          "midi": 70,
          "time": 3.3609375000000004,
          "velocity": 0.5669291338582677,
          "duration": 0.23906250000000018
        },
        {
          "name": "D5",
          "midi": 74,
          "time": 3.3609375000000004,
          "velocity": 0.5669291338582677,
          "duration": 0.23906250000000018
        },
        {
          "name": "F3",
          "midi": 53,
          "time": 3.3609375000000004,
          "velocity": 0.5669291338582677,
          "duration": 0.23906250000000018
        },
        {
          "name": "F4",
          "midi": 65,
          "time": 3.6000000000000005,
          "velocity": 0.6377952755905512,
          "duration": 0.2999999999999998
        },
        {
          "name": "G#4",
          "midi": 68,
          "time": 3.6000000000000005,
          "velocity": 0.6377952755905512,
          "duration": 0.2999999999999998
        },
        {
          "name": "A#4",
          "midi": 70,
          "time": 3.6000000000000005,
          "velocity": 0.6377952755905512,
          "duration": 0.2999999999999998
        },
        {
          "name": "D5",
          "midi": 74,
          "time": 3.6000000000000005,
          "velocity": 0.6377952755905512,
          "duration": 0.2999999999999998
        },
        {
          "name": "G#3",
          "midi": 56,
          "time": 3.6000000000000005,
          "velocity": 0.6771653543307087,
          "duration": 0.5999999999999996
        },
        {
          "name": "F4",
          "midi": 65,
          "time": 3.9609375000000004,
          "velocity": 0.6141732283464567,
          "duration": 0.23906249999999973
        },
        {
          "name": "G#4",
          "midi": 68,
          "time": 3.9609375000000004,
          "velocity": 0.6141732283464567,
          "duration": 0.23906249999999973
        },
        {
          "name": "A#4",
          "midi": 70,
          "time": 3.9609375000000004,
          "velocity": 0.6141732283464567,
          "duration": 0.23906249999999973
        },
        {
          "name": "D5",
          "midi": 74,
          "time": 3.9609375000000004,
          "velocity": 0.6141732283464567,
          "duration": 0.23906249999999973
        },
        {
          "name": "F4",
          "midi": 65,
          "time": 4.2,
          "velocity": 0.6377952755905512,
          "duration": 0.2999999999999998
        },
        {
          "name": "G#4",
          "midi": 68,
          "time": 4.2,
          "velocity": 0.6377952755905512,
          "duration": 0.2999999999999998
        },
        {
          "name": "A#4",
          "midi": 70,
          "time": 4.2,
          "velocity": 0.6377952755905512,
          "duration": 0.2999999999999998
        },
        {
          "name": "D5",
          "midi": 74,
          "time": 4.2,
          "velocity": 0.6377952755905512,
          "duration": 0.2999999999999998
        },
        {
          "name": "A#3",
          "midi": 58,
          "time": 4.2,
          "velocity": 0.6614173228346457,
          "duration": 0.5999999999999996
        },
        {
          "name": "F4",
          "midi": 65,
          "time": 4.5609375,
          "velocity": 0.5590551181102362,
          "duration": 0.23906250000000018
        },
        {
          "name": "G#4",
          "midi": 68,
          "time": 4.5609375,
          "velocity": 0.5590551181102362,
          "duration": 0.23906250000000018
        },
        {
          "name": "A#4",
          "midi": 70,
          "time": 4.5609375,
          "velocity": 0.5590551181102362,
          "duration": 0.23906250000000018
        },
        {
          "name": "D5",
          "midi": 74,
          "time": 4.5609375,
          "velocity": 0.5590551181102362,
          "duration": 0.23906250000000018
        },
        {
          "name": "F4",
          "midi": 65,
          "time": 4.8,
          "velocity": 0.6535433070866141,
          "duration": 0.2999999999999998
        },
        {
          "name": "A4",
          "midi": 69,
          "time": 4.8,
          "velocity": 0.6535433070866141,
          "duration": 0.2999999999999998
        },
        {
          "name": "C5",
          "midi": 72,
          "time": 4.8,
          "velocity": 0.6535433070866141,
          "duration": 0.2999999999999998
        },
        {
          "name": "D#5",
          "midi": 75,
          "time": 4.8,
          "velocity": 0.6535433070866141,
          "duration": 0.2999999999999998
        },
        {
          "name": "F2",
          "midi": 41,
          "time": 4.8,
          "velocity": 0.5590551181102362,
          "duration": 0.2999999999999998
        },
        {
          "name": "F4",
          "midi": 65,
          "time": 5.160937499999999,
          "velocity": 0.5590551181102362,
          "duration": 0.23906250000000018
        },
        {
          "name": "A4",
          "midi": 69,
          "time": 5.160937499999999,
          "velocity": 0.5590551181102362,
          "duration": 0.23906250000000018
        },
        {
          "name": "C5",
          "midi": 72,
          "time": 5.160937499999999,
          "velocity": 0.5590551181102362,
          "duration": 0.23906250000000018
        },
        {
          "name": "D#5",
          "midi": 75,
          "time": 5.160937499999999,
          "velocity": 0.5590551181102362,
          "duration": 0.23906250000000018
        },
        {
          "name": "F2",
          "midi": 41,
          "time": 5.160937499999999,
          "velocity": 0.5748031496062992,
          "duration": 0.23906250000000018
        },
        {
          "name": "F4",
          "midi": 65,
          "time": 5.3999999999999995,
          "velocity": 0.6062992125984252,
          "duration": 0.2999999999999998
        },
        {
          "name": "A4",
          "midi": 69,
          "time": 5.3999999999999995,
          "velocity": 0.6062992125984252,
          "duration": 0.2999999999999998
        },
        {
          "name": "C5",
          "midi": 72,
          "time": 5.3999999999999995,
          "velocity": 0.6062992125984252,
          "duration": 0.2999999999999998
        },
        {
          "name": "D#5",
          "midi": 75,
          "time": 5.3999999999999995,
          "velocity": 0.6062992125984252,
          "duration": 0.2999999999999998
        },
        {
          "name": "C3",
          "midi": 48,
          "time": 5.3999999999999995,
          "velocity": 0.6771653543307087,
          "duration": 0.2999999999999998
        },
        {
          "name": "F4",
          "midi": 65,
          "time": 5.760937499999999,
          "velocity": 0.5748031496062992,
          "duration": 0.23906250000000018
        },
        {
          "name": "A4",
          "midi": 69,
          "time": 5.760937499999999,
          "velocity": 0.5748031496062992,
          "duration": 0.23906250000000018
        },
        {
          "name": "C5",
          "midi": 72,
          "time": 5.760937499999999,
          "velocity": 0.5748031496062992,
          "duration": 0.23906250000000018
        },
        {
          "name": "D#5",
          "midi": 75,
          "time": 5.760937499999999,
          "velocity": 0.5748031496062992,
          "duration": 0.23906250000000018
        },
        {
          "name": "C3",
          "midi": 48,
          "time": 5.760937499999999,
          "velocity": 0.5748031496062992,
          "duration": 0.23906250000000018
        },
        {
          "name": "F4",
          "midi": 65,
          "time": 5.999999999999999,
          "velocity": 0.6456692913385826,
          "duration": 0.2999999999999998
        },
        {
          "name": "A4",
          "midi": 69,
          "time": 5.999999999999999,
          "velocity": 0.6456692913385826,
          "duration": 0.2999999999999998
        },
        {
          "name": "C5",
          "midi": 72,
          "time": 5.999999999999999,
          "velocity": 0.6456692913385826,
          "duration": 0.2999999999999998
        },
        {
          "name": "D#5",
          "midi": 75,
          "time": 5.999999999999999,
          "velocity": 0.6456692913385826,
          "duration": 0.2999999999999998
        },
        {
          "name": "D#3",
          "midi": 51,
          "time": 5.999999999999999,
          "velocity": 0.6456692913385826,
          "duration": 0.5999999999999996
        },
        {
          "name": "F4",
          "midi": 65,
          "time": 6.360937499999999,
          "velocity": 0.5354330708661418,
          "duration": 0.23906250000000018
        },
        {
          "name": "A4",
          "midi": 69,
          "time": 6.360937499999999,
          "velocity": 0.5354330708661418,
          "duration": 0.23906250000000018
        },
        {
          "name": "C5",
          "midi": 72,
          "time": 6.360937499999999,
          "velocity": 0.5354330708661418,
          "duration": 0.23906250000000018
        },
        {
          "name": "D#5",
          "midi": 75,
          "time": 6.360937499999999,
          "velocity": 0.5354330708661418,
          "duration": 0.23906250000000018
        },
        {
          "name": "F4",
          "midi": 65,
          "time": 6.599999999999999,
          "velocity": 0.6299212598425197,
          "duration": 0.2999999999999998
        },
        {
          "name": "A4",
          "midi": 69,
          "time": 6.599999999999999,
          "velocity": 0.6299212598425197,
          "duration": 0.2999999999999998
        },
        {
          "name": "C5",
          "midi": 72,
          "time": 6.599999999999999,
          "velocity": 0.6299212598425197,
          "duration": 0.2999999999999998
        },
        {
          "name": "D#5",
          "midi": 75,
          "time": 6.599999999999999,
          "velocity": 0.6299212598425197,
          "duration": 0.2999999999999998
        },
        {
          "name": "F3",
          "midi": 53,
          "time": 6.599999999999999,
          "velocity": 0.6850393700787402,
          "duration": 0.5999999999999996
        },
        {
          "name": "F4",
          "midi": 65,
          "time": 6.960937499999998,
          "velocity": 0.5590551181102362,
          "duration": 0.23906250000000018
        },
        {
          "name": "A4",
          "midi": 69,
          "time": 6.960937499999998,
          "velocity": 0.5590551181102362,
          "duration": 0.23906250000000018
        },
        {
          "name": "C5",
          "midi": 72,
          "time": 6.960937499999998,
          "velocity": 0.5590551181102362,
          "duration": 0.23906250000000018
        },
        {
          "name": "D#5",
          "midi": 75,
          "time": 6.960937499999998,
          "velocity": 0.5590551181102362,
          "duration": 0.23906250000000018
        },
        {
          "name": "A4",
          "midi": 69,
          "time": 7.199999999999998,
          "velocity": 0.6771653543307087,
          "duration": 0.2999999999999998
        },
        {
          "name": "C5",
          "midi": 72,
          "time": 7.199999999999998,
          "velocity": 0.6771653543307087,
          "duration": 0.2999999999999998
        },
        {
          "name": "D#5",
          "midi": 75,
          "time": 7.199999999999998,
          "velocity": 0.6771653543307087,
          "duration": 0.2999999999999998
        },
        {
          "name": "F5",
          "midi": 77,
          "time": 7.199999999999998,
          "velocity": 0.6771653543307087,
          "duration": 0.2999999999999998
        },
        {
          "name": "F2",
          "midi": 41,
          "time": 7.199999999999998,
          "velocity": 0.5748031496062992,
          "duration": 0.2999999999999998
        },
        {
          "name": "A4",
          "midi": 69,
          "time": 7.560937499999998,
          "velocity": 0.5511811023622047,
          "duration": 0.23906250000000018
        },
        {
          "name": "C5",
          "midi": 72,
          "time": 7.560937499999998,
          "velocity": 0.5511811023622047,
          "duration": 0.23906250000000018
        },
        {
          "name": "D#5",
          "midi": 75,
          "time": 7.560937499999998,
          "velocity": 0.5511811023622047,
          "duration": 0.23906250000000018
        },
        {
          "name": "F5",
          "midi": 77,
          "time": 7.560937499999998,
          "velocity": 0.5511811023622047,
          "duration": 0.23906250000000018
        },
        {
          "name": "F2",
          "midi": 41,
          "time": 7.560937499999998,
          "velocity": 0.5748031496062992,
          "duration": 0.23906250000000018
        },
        {
          "name": "A4",
          "midi": 69,
          "time": 7.799999999999998,
          "velocity": 0.6141732283464567,
          "duration": 0.2999999999999998
        },
        {
          "name": "C5",
          "midi": 72,
          "time": 7.799999999999998,
          "velocity": 0.6141732283464567,
          "duration": 0.2999999999999998
        },
        {
          "name": "D#5",
          "midi": 75,
          "time": 7.799999999999998,
          "velocity": 0.6141732283464567,
          "duration": 0.2999999999999998
        },
        {
          "name": "F5",
          "midi": 77,
          "time": 7.799999999999998,
          "velocity": 0.6141732283464567,
          "duration": 0.2999999999999998
        },
        {
          "name": "C3",
          "midi": 48,
          "time": 7.799999999999998,
          "velocity": 0.7007874015748031,
          "duration": 0.2999999999999998
        },
        {
          "name": "A4",
          "midi": 69,
          "time": 8.160937499999998,
          "velocity": 0.5748031496062992,
          "duration": 0.2390624999999993
        },
        {
          "name": "C5",
          "midi": 72,
          "time": 8.160937499999998,
          "velocity": 0.5748031496062992,
          "duration": 0.2390624999999993
        },
        {
          "name": "D#5",
          "midi": 75,
          "time": 8.160937499999998,
          "velocity": 0.5748031496062992,
          "duration": 0.2390624999999993
        },
        {
          "name": "F5",
          "midi": 77,
          "time": 8.160937499999998,
          "velocity": 0.5748031496062992,
          "duration": 0.2390624999999993
        },
        {
          "name": "C3",
          "midi": 48,
          "time": 8.160937499999998,
          "velocity": 0.5748031496062992,
          "duration": 0.2390624999999993
        },
        {
          "name": "A4",
          "midi": 69,
          "time": 8.399999999999997,
          "velocity": 0.5748031496062992,
          "duration": 0.3000000000000007
        },
        {
          "name": "C5",
          "midi": 72,
          "time": 8.399999999999997,
          "velocity": 0.5748031496062992,
          "duration": 0.3000000000000007
        },
        {
          "name": "D#5",
          "midi": 75,
          "time": 8.399999999999997,
          "velocity": 0.5748031496062992,
          "duration": 0.3000000000000007
        },
        {
          "name": "F5",
          "midi": 77,
          "time": 8.399999999999997,
          "velocity": 0.5748031496062992,
          "duration": 0.3000000000000007
        },
        {
          "name": "D#3",
          "midi": 51,
          "time": 8.399999999999997,
          "velocity": 0.6377952755905512,
          "duration": 0.5999999999999996
        },
        {
          "name": "A4",
          "midi": 69,
          "time": 8.760937499999997,
          "velocity": 0.5433070866141733,
          "duration": 0.2390624999999993
        },
        {
          "name": "C5",
          "midi": 72,
          "time": 8.760937499999997,
          "velocity": 0.5433070866141733,
          "duration": 0.2390624999999993
        },
        {
          "name": "D#5",
          "midi": 75,
          "time": 8.760937499999997,
          "velocity": 0.5433070866141733,
          "duration": 0.2390624999999993
        },
        {
          "name": "F5",
          "midi": 77,
          "time": 8.760937499999997,
          "velocity": 0.5433070866141733,
          "duration": 0.2390624999999993
        },
        {
          "name": "A4",
          "midi": 69,
          "time": 8.999999999999996,
          "velocity": 0.6141732283464567,
          "duration": 0.3000000000000007
        },
        {
          "name": "C5",
          "midi": 72,
          "time": 8.999999999999996,
          "velocity": 0.6141732283464567,
          "duration": 0.3000000000000007
        },
        {
          "name": "D#5",
          "midi": 75,
          "time": 8.999999999999996,
          "velocity": 0.6141732283464567,
          "duration": 0.3000000000000007
        },
        {
          "name": "F5",
          "midi": 77,
          "time": 8.999999999999996,
          "velocity": 0.6141732283464567,
          "duration": 0.3000000000000007
        },
        {
          "name": "F3",
          "midi": 53,
          "time": 8.999999999999996,
          "velocity": 0.6850393700787402,
          "duration": 0.5999999999999996
        },
        {
          "name": "A4",
          "midi": 69,
          "time": 9.360937499999997,
          "velocity": 0.5669291338582677,
          "duration": 0.2390624999999993
        },
        {
          "name": "C5",
          "midi": 72,
          "time": 9.360937499999997,
          "velocity": 0.5669291338582677,
          "duration": 0.2390624999999993
        },
        {
          "name": "D#5",
          "midi": 75,
          "time": 9.360937499999997,
          "velocity": 0.5669291338582677,
          "duration": 0.2390624999999993
        },
        {
          "name": "F5",
          "midi": 77,
          "time": 9.360937499999997,
          "velocity": 0.5669291338582677,
          "duration": 0.2390624999999993
        },
        {
          "name": "G#4",
          "midi": 68,
          "time": 9.599999999999996,
          "velocity": 0.6299212598425197,
          "duration": 0.3000000000000007
        },
        {
          "name": "A#4",
          "midi": 70,
          "time": 9.599999999999996,
          "velocity": 0.6299212598425197,
          "duration": 0.3000000000000007
        },
        {
          "name": "D5",
          "midi": 74,
          "time": 9.599999999999996,
          "velocity": 0.6299212598425197,
          "duration": 0.3000000000000007
        },
        {
          "name": "F5",
          "midi": 77,
          "time": 9.599999999999996,
          "velocity": 0.6299212598425197,
          "duration": 0.3000000000000007
        },
        {
          "name": "A#2",
          "midi": 46,
          "time": 9.599999999999996,
          "velocity": 0.5748031496062992,
          "duration": 0.3000000000000007
        },
        {
          "name": "G#4",
          "midi": 68,
          "time": 9.960937499999996,
          "velocity": 0.5826771653543307,
          "duration": 0.2390624999999993
        },
        {
          "name": "A#4",
          "midi": 70,
          "time": 9.960937499999996,
          "velocity": 0.5826771653543307,
          "duration": 0.2390624999999993
        },
        {
          "name": "D5",
          "midi": 74,
          "time": 9.960937499999996,
          "velocity": 0.5826771653543307,
          "duration": 0.2390624999999993
        },
        {
          "name": "F5",
          "midi": 77,
          "time": 9.960937499999996,
          "velocity": 0.5826771653543307,
          "duration": 0.2390624999999993
        },
        {
          "name": "A#2",
          "midi": 46,
          "time": 9.960937499999996,
          "velocity": 0.5433070866141733,
          "duration": 0.2390624999999993
        },
        {
          "name": "G#4",
          "midi": 68,
          "time": 10.199999999999996,
          "velocity": 0.6456692913385826,
          "duration": 0.3000000000000007
        },
        {
          "name": "A#4",
          "midi": 70,
          "time": 10.199999999999996,
          "velocity": 0.6456692913385826,
          "duration": 0.3000000000000007
        },
        {
          "name": "D5",
          "midi": 74,
          "time": 10.199999999999996,
          "velocity": 0.6456692913385826,
          "duration": 0.3000000000000007
        },
        {
          "name": "F5",
          "midi": 77,
          "time": 10.199999999999996,
          "velocity": 0.6456692913385826,
          "duration": 0.3000000000000007
        },
        {
          "name": "F3",
          "midi": 53,
          "time": 10.199999999999996,
          "velocity": 0.6929133858267716,
          "duration": 0.3000000000000007
        },
        {
          "name": "G#4",
          "midi": 68,
          "time": 10.560937499999996,
          "velocity": 0.5669291338582677,
          "duration": 0.2390624999999993
        },
        {
          "name": "A#4",
          "midi": 70,
          "time": 10.560937499999996,
          "velocity": 0.5669291338582677,
          "duration": 0.2390624999999993
        },
        {
          "name": "D5",
          "midi": 74,
          "time": 10.560937499999996,
          "velocity": 0.5669291338582677,
          "duration": 0.2390624999999993
        },
        {
          "name": "F5",
          "midi": 77,
          "time": 10.560937499999996,
          "velocity": 0.5669291338582677,
          "duration": 0.2390624999999993
        },
        {
          "name": "F3",
          "midi": 53,
          "time": 10.560937499999996,
          "velocity": 0.5984251968503937,
          "duration": 0.2390624999999993
        },
        {
          "name": "G#4",
          "midi": 68,
          "time": 10.799999999999995,
          "velocity": 0.6141732283464567,
          "duration": 0.3000000000000007
        },
        {
          "name": "A#4",
          "midi": 70,
          "time": 10.799999999999995,
          "velocity": 0.6141732283464567,
          "duration": 0.3000000000000007
        },
        {
          "name": "D5",
          "midi": 74,
          "time": 10.799999999999995,
          "velocity": 0.6141732283464567,
          "duration": 0.3000000000000007
        },
        {
          "name": "F5",
          "midi": 77,
          "time": 10.799999999999995,
          "velocity": 0.6141732283464567,
          "duration": 0.3000000000000007
        },
        {
          "name": "G#3",
          "midi": 56,
          "time": 10.799999999999995,
          "velocity": 0.6377952755905512,
          "duration": 0.5999999999999996
        },
        {
          "name": "G#4",
          "midi": 68,
          "time": 11.160937499999996,
          "velocity": 0.5669291338582677,
          "duration": 0.2390624999999993
        },
        {
          "name": "A#4",
          "midi": 70,
          "time": 11.160937499999996,
          "velocity": 0.5669291338582677,
          "duration": 0.2390624999999993
        },
        {
          "name": "D5",
          "midi": 74,
          "time": 11.160937499999996,
          "velocity": 0.5669291338582677,
          "duration": 0.2390624999999993
        },
        {
          "name": "F5",
          "midi": 77,
          "time": 11.160937499999996,
          "velocity": 0.5669291338582677,
          "duration": 0.2390624999999993
        },
        {
          "name": "G#4",
          "midi": 68,
          "time": 11.399999999999995,
          "velocity": 0.6456692913385826,
          "duration": 0.3000000000000007
        },
        {
          "name": "A#4",
          "midi": 70,
          "time": 11.399999999999995,
          "velocity": 0.6456692913385826,
          "duration": 0.3000000000000007
        },
        {
          "name": "D5",
          "midi": 74,
          "time": 11.399999999999995,
          "velocity": 0.6456692913385826,
          "duration": 0.3000000000000007
        },
        {
          "name": "F5",
          "midi": 77,
          "time": 11.399999999999995,
          "velocity": 0.6456692913385826,
          "duration": 0.3000000000000007
        },
        {
          "name": "A#3",
          "midi": 58,
          "time": 11.399999999999995,
          "velocity": 0.6692913385826772,
          "duration": 0.5999999999999996
        },
        {
          "name": "G#4",
          "midi": 68,
          "time": 11.760937499999995,
          "velocity": 0.5905511811023622,
          "duration": 0.2390624999999993
        },
        {
          "name": "A#4",
          "midi": 70,
          "time": 11.760937499999995,
          "velocity": 0.5905511811023622,
          "duration": 0.2390624999999993
        },
        {
          "name": "D5",
          "midi": 74,
          "time": 11.760937499999995,
          "velocity": 0.5905511811023622,
          "duration": 0.2390624999999993
        },
        {
          "name": "F5",
          "midi": 77,
          "time": 11.760937499999995,
          "velocity": 0.5905511811023622,
          "duration": 0.2390624999999993
        },
        {
          "name": "G#4",
          "midi": 68,
          "time": 11.999999999999995,
          "velocity": 0.6299212598425197,
          "duration": 0.3000000000000007
        },
        {
          "name": "A#4",
          "midi": 70,
          "time": 11.999999999999995,
          "velocity": 0.6299212598425197,
          "duration": 0.3000000000000007
        },
        {
          "name": "D5",
          "midi": 74,
          "time": 11.999999999999995,
          "velocity": 0.6299212598425197,
          "duration": 0.3000000000000007
        },
        {
          "name": "F5",
          "midi": 77,
          "time": 11.999999999999995,
          "velocity": 0.6299212598425197,
          "duration": 0.3000000000000007
        },
        {
          "name": "A#2",
          "midi": 46,
          "time": 11.999999999999995,
          "velocity": 0.49606299212598426,
          "duration": 0.3000000000000007
        },
        {
          "name": "G#4",
          "midi": 68,
          "time": 12.360937499999995,
          "velocity": 0.5118110236220472,
          "duration": 0.2390624999999993
        },
        {
          "name": "A#4",
          "midi": 70,
          "time": 12.360937499999995,
          "velocity": 0.5118110236220472,
          "duration": 0.2390624999999993
        },
        {
          "name": "D5",
          "midi": 74,
          "time": 12.360937499999995,
          "velocity": 0.5118110236220472,
          "duration": 0.2390624999999993
        },
        {
          "name": "F5",
          "midi": 77,
          "time": 12.360937499999995,
          "velocity": 0.5118110236220472,
          "duration": 0.2390624999999993
        },
        {
          "name": "A#2",
          "midi": 46,
          "time": 12.360937499999995,
          "velocity": 0.5433070866141733,
          "duration": 0.2390624999999993
        },
        {
          "name": "G#4",
          "midi": 68,
          "time": 12.599999999999994,
          "velocity": 0.6062992125984252,
          "duration": 0.3000000000000007
        },
        {
          "name": "A#4",
          "midi": 70,
          "time": 12.599999999999994,
          "velocity": 0.6062992125984252,
          "duration": 0.3000000000000007
        },
        {
          "name": "D5",
          "midi": 74,
          "time": 12.599999999999994,
          "velocity": 0.6062992125984252,
          "duration": 0.3000000000000007
        },
        {
          "name": "F5",
          "midi": 77,
          "time": 12.599999999999994,
          "velocity": 0.6062992125984252,
          "duration": 0.3000000000000007
        },
        {
          "name": "F3",
          "midi": 53,
          "time": 12.599999999999994,
          "velocity": 0.6850393700787402,
          "duration": 0.3000000000000007
        },
        {
          "name": "G#4",
          "midi": 68,
          "time": 12.960937499999995,
          "velocity": 0.5984251968503937,
          "duration": 0.2390624999999993
        },
        {
          "name": "A#4",
          "midi": 70,
          "time": 12.960937499999995,
          "velocity": 0.5984251968503937,
          "duration": 0.2390624999999993
        },
        {
          "name": "D5",
          "midi": 74,
          "time": 12.960937499999995,
          "velocity": 0.5984251968503937,
          "duration": 0.2390624999999993
        },
        {
          "name": "F5",
          "midi": 77,
          "time": 12.960937499999995,
          "velocity": 0.5984251968503937,
          "duration": 0.2390624999999993
        },
        {
          "name": "F3",
          "midi": 53,
          "time": 12.960937499999995,
          "velocity": 0.6062992125984252,
          "duration": 0.2390624999999993
        },
        {
          "name": "G#4",
          "midi": 68,
          "time": 13.199999999999994,
          "velocity": 0.6456692913385826,
          "duration": 0.3000000000000007
        },
        {
          "name": "A#4",
          "midi": 70,
          "time": 13.199999999999994,
          "velocity": 0.6456692913385826,
          "duration": 0.3000000000000007
        },
        {
          "name": "D5",
          "midi": 74,
          "time": 13.199999999999994,
          "velocity": 0.6456692913385826,
          "duration": 0.3000000000000007
        },
        {
          "name": "F5",
          "midi": 77,
          "time": 13.199999999999994,
          "velocity": 0.6456692913385826,
          "duration": 0.3000000000000007
        },
        {
          "name": "G#3",
          "midi": 56,
          "time": 13.199999999999994,
          "velocity": 0.6692913385826772,
          "duration": 0.5999999999999996
        },
        {
          "name": "G#4",
          "midi": 68,
          "time": 13.560937499999994,
          "velocity": 0.5590551181102362,
          "duration": 0.2390624999999993
        },
        {
          "name": "A#4",
          "midi": 70,
          "time": 13.560937499999994,
          "velocity": 0.5590551181102362,
          "duration": 0.2390624999999993
        },
        {
          "name": "D5",
          "midi": 74,
          "time": 13.560937499999994,
          "velocity": 0.5590551181102362,
          "duration": 0.2390624999999993
        },
        {
          "name": "F5",
          "midi": 77,
          "time": 13.560937499999994,
          "velocity": 0.5590551181102362,
          "duration": 0.2390624999999993
        },
        {
          "name": "G#4",
          "midi": 68,
          "time": 13.799999999999994,
          "velocity": 0.6614173228346457,
          "duration": 0.3000000000000007
        },
        {
          "name": "A#4",
          "midi": 70,
          "time": 13.799999999999994,
          "velocity": 0.6614173228346457,
          "duration": 0.3000000000000007
        },
        {
          "name": "D5",
          "midi": 74,
          "time": 13.799999999999994,
          "velocity": 0.6614173228346457,
          "duration": 0.3000000000000007
        },
        {
          "name": "F5",
          "midi": 77,
          "time": 13.799999999999994,
          "velocity": 0.6614173228346457,
          "duration": 0.3000000000000007
        },
        {
          "name": "A#3",
          "midi": 58,
          "time": 13.799999999999994,
          "velocity": 0.6535433070866141,
          "duration": 0.5999999999999996
        },
        {
          "name": "G#4",
          "midi": 68,
          "time": 14.160937499999994,
          "velocity": 0.5590551181102362,
          "duration": 0.2390624999999993
        },
        {
          "name": "A#4",
          "midi": 70,
          "time": 14.160937499999994,
          "velocity": 0.5590551181102362,
          "duration": 0.2390624999999993
        },
        {
          "name": "D5",
          "midi": 74,
          "time": 14.160937499999994,
          "velocity": 0.5590551181102362,
          "duration": 0.2390624999999993
        },
        {
          "name": "F5",
          "midi": 77,
          "time": 14.160937499999994,
          "velocity": 0.5590551181102362,
          "duration": 0.2390624999999993
        },
        {
          "name": "A4",
          "midi": 69,
          "time": 14.399999999999993,
          "velocity": 0.6377952755905512,
          "duration": 0.3000000000000007
        },
        {
          "name": "C5",
          "midi": 72,
          "time": 14.399999999999993,
          "velocity": 0.6377952755905512,
          "duration": 0.3000000000000007
        },
        {
          "name": "D#5",
          "midi": 75,
          "time": 14.399999999999993,
          "velocity": 0.6377952755905512,
          "duration": 0.3000000000000007
        },
        {
          "name": "F5",
          "midi": 77,
          "time": 14.399999999999993,
          "velocity": 0.6377952755905512,
          "duration": 0.3000000000000007
        },
        {
          "name": "F2",
          "midi": 41,
          "time": 14.399999999999993,
          "velocity": 0.5275590551181102,
          "duration": 0.3000000000000007
        },
        {
          "name": "A4",
          "midi": 69,
          "time": 14.760937499999994,
          "velocity": 0.5669291338582677,
          "duration": 0.2390624999999993
        },
        {
          "name": "C5",
          "midi": 72,
          "time": 14.760937499999994,
          "velocity": 0.5669291338582677,
          "duration": 0.2390624999999993
        },
        {
          "name": "D#5",
          "midi": 75,
          "time": 14.760937499999994,
          "velocity": 0.5669291338582677,
          "duration": 0.2390624999999993
        },
        {
          "name": "F5",
          "midi": 77,
          "time": 14.760937499999994,
          "velocity": 0.5669291338582677,
          "duration": 0.2390624999999993
        },
        {
          "name": "F2",
          "midi": 41,
          "time": 14.760937499999994,
          "velocity": 0.5669291338582677,
          "duration": 0.2390624999999993
        },
        {
          "name": "A4",
          "midi": 69,
          "time": 14.999999999999993,
          "velocity": 0.6220472440944882,
          "duration": 0.3000000000000007
        },
        {
          "name": "C5",
          "midi": 72,
          "time": 14.999999999999993,
          "velocity": 0.6220472440944882,
          "duration": 0.3000000000000007
        },
        {
          "name": "D#5",
          "midi": 75,
          "time": 14.999999999999993,
          "velocity": 0.6220472440944882,
          "duration": 0.3000000000000007
        },
        {
          "name": "F5",
          "midi": 77,
          "time": 14.999999999999993,
          "velocity": 0.6220472440944882,
          "duration": 0.3000000000000007
        },
        {
          "name": "C3",
          "midi": 48,
          "time": 14.999999999999993,
          "velocity": 0.6535433070866141,
          "duration": 0.3000000000000007
        },
        {
          "name": "A4",
          "midi": 69,
          "time": 15.360937499999993,
          "velocity": 0.5748031496062992,
          "duration": 0.2390624999999993
        },
        {
          "name": "C5",
          "midi": 72,
          "time": 15.360937499999993,
          "velocity": 0.5748031496062992,
          "duration": 0.2390624999999993
        },
        {
          "name": "D#5",
          "midi": 75,
          "time": 15.360937499999993,
          "velocity": 0.5748031496062992,
          "duration": 0.2390624999999993
        },
        {
          "name": "F5",
          "midi": 77,
          "time": 15.360937499999993,
          "velocity": 0.5748031496062992,
          "duration": 0.2390624999999993
        },
        {
          "name": "C3",
          "midi": 48,
          "time": 15.360937499999993,
          "velocity": 0.5590551181102362,
          "duration": 0.2390624999999993
        },
        {
          "name": "A4",
          "midi": 69,
          "time": 15.599999999999993,
          "velocity": 0.6299212598425197,
          "duration": 0.3000000000000007
        },
        {
          "name": "C5",
          "midi": 72,
          "time": 15.599999999999993,
          "velocity": 0.6299212598425197,
          "duration": 0.3000000000000007
        },
        {
          "name": "D#5",
          "midi": 75,
          "time": 15.599999999999993,
          "velocity": 0.6299212598425197,
          "duration": 0.3000000000000007
        },
        {
          "name": "F5",
          "midi": 77,
          "time": 15.599999999999993,
          "velocity": 0.6299212598425197,
          "duration": 0.3000000000000007
        },
        {
          "name": "D#3",
          "midi": 51,
          "time": 15.599999999999993,
          "velocity": 0.6456692913385826,
          "duration": 0.5999999999999996
        },
        {
          "name": "A4",
          "midi": 69,
          "time": 15.960937499999993,
          "velocity": 0.5748031496062992,
          "duration": 0.2390624999999993
        },
        {
          "name": "C5",
          "midi": 72,
          "time": 15.960937499999993,
          "velocity": 0.5748031496062992,
          "duration": 0.2390624999999993
        },
        {
          "name": "D#5",
          "midi": 75,
          "time": 15.960937499999993,
          "velocity": 0.5748031496062992,
          "duration": 0.2390624999999993
        },
        {
          "name": "F5",
          "midi": 77,
          "time": 15.960937499999993,
          "velocity": 0.5748031496062992,
          "duration": 0.2390624999999993
        },
        {
          "name": "A4",
          "midi": 69,
          "time": 16.199999999999992,
          "velocity": 0.6535433070866141,
          "duration": 0.3000000000000007
        },
        {
          "name": "C5",
          "midi": 72,
          "time": 16.199999999999992,
          "velocity": 0.6535433070866141,
          "duration": 0.3000000000000007
        },
        {
          "name": "D#5",
          "midi": 75,
          "time": 16.199999999999992,
          "velocity": 0.6535433070866141,
          "duration": 0.3000000000000007
        },
        {
          "name": "F5",
          "midi": 77,
          "time": 16.199999999999992,
          "velocity": 0.6535433070866141,
          "duration": 0.3000000000000007
        },
        {
          "name": "F3",
          "midi": 53,
          "time": 16.199999999999992,
          "velocity": 0.6692913385826772,
          "duration": 0.6000000000000014
        },
        {
          "name": "A4",
          "midi": 69,
          "time": 16.560937499999994,
          "velocity": 0.5590551181102362,
          "duration": 0.2390624999999993
        },
        {
          "name": "C5",
          "midi": 72,
          "time": 16.560937499999994,
          "velocity": 0.5590551181102362,
          "duration": 0.2390624999999993
        },
        {
          "name": "D#5",
          "midi": 75,
          "time": 16.560937499999994,
          "velocity": 0.5590551181102362,
          "duration": 0.2390624999999993
        },
        {
          "name": "F5",
          "midi": 77,
          "time": 16.560937499999994,
          "velocity": 0.5590551181102362,
          "duration": 0.2390624999999993
        },
        {
          "name": "F4",
          "midi": 65,
          "time": 16.799999999999994,
          "velocity": 0.5984251968503937,
          "duration": 0.3000000000000007
        },
        {
          "name": "A4",
          "midi": 69,
          "time": 16.799999999999994,
          "velocity": 0.5984251968503937,
          "duration": 0.3000000000000007
        },
        {
          "name": "C5",
          "midi": 72,
          "time": 16.799999999999994,
          "velocity": 0.5984251968503937,
          "duration": 0.3000000000000007
        },
        {
          "name": "D#5",
          "midi": 75,
          "time": 16.799999999999994,
          "velocity": 0.5984251968503937,
          "duration": 0.3000000000000007
        },
        {
          "name": "F2",
          "midi": 41,
          "time": 16.799999999999994,
          "velocity": 0.5433070866141733,
          "duration": 0.3000000000000007
        },
        {
          "name": "F4",
          "midi": 65,
          "time": 17.160937499999996,
          "velocity": 0.5354330708661418,
          "duration": 0.2390624999999993
        },
        {
          "name": "A4",
          "midi": 69,
          "time": 17.160937499999996,
          "velocity": 0.5354330708661418,
          "duration": 0.2390624999999993
        },
        {
          "name": "C5",
          "midi": 72,
          "time": 17.160937499999996,
          "velocity": 0.5354330708661418,
          "duration": 0.2390624999999993
        },
        {
          "name": "D#5",
          "midi": 75,
          "time": 17.160937499999996,
          "velocity": 0.5354330708661418,
          "duration": 0.2390624999999993
        },
        {
          "name": "F2",
          "midi": 41,
          "time": 17.160937499999996,
          "velocity": 0.5511811023622047,
          "duration": 0.2390624999999993
        },
        {
          "name": "F4",
          "midi": 65,
          "time": 17.399999999999995,
          "velocity": 0.6535433070866141,
          "duration": 0.3000000000000007
        },
        {
          "name": "A4",
          "midi": 69,
          "time": 17.399999999999995,
          "velocity": 0.6535433070866141,
          "duration": 0.3000000000000007
        },
        {
          "name": "C5",
          "midi": 72,
          "time": 17.399999999999995,
          "velocity": 0.6535433070866141,
          "duration": 0.3000000000000007
        },
        {
          "name": "D#5",
          "midi": 75,
          "time": 17.399999999999995,
          "velocity": 0.6535433070866141,
          "duration": 0.3000000000000007
        },
        {
          "name": "C3",
          "midi": 48,
          "time": 17.399999999999995,
          "velocity": 0.6850393700787402,
          "duration": 0.3000000000000007
        },
        {
          "name": "F4",
          "midi": 65,
          "time": 17.760937499999997,
          "velocity": 0.5590551181102362,
          "duration": 0.2390624999999993
        },
        {
          "name": "A4",
          "midi": 69,
          "time": 17.760937499999997,
          "velocity": 0.5590551181102362,
          "duration": 0.2390624999999993
        },
        {
          "name": "C5",
          "midi": 72,
          "time": 17.760937499999997,
          "velocity": 0.5590551181102362,
          "duration": 0.2390624999999993
        },
        {
          "name": "D#5",
          "midi": 75,
          "time": 17.760937499999997,
          "velocity": 0.5590551181102362,
          "duration": 0.2390624999999993
        },
        {
          "name": "C3",
          "midi": 48,
          "time": 17.760937499999997,
          "velocity": 0.5748031496062992,
          "duration": 0.2390624999999993
        },
        {
          "name": "F4",
          "midi": 65,
          "time": 17.999999999999996,
          "velocity": 0.5984251968503937,
          "duration": 0.3000000000000007
        },
        {
          "name": "A4",
          "midi": 69,
          "time": 17.999999999999996,
          "velocity": 0.5984251968503937,
          "duration": 0.3000000000000007
        },
        {
          "name": "C5",
          "midi": 72,
          "time": 17.999999999999996,
          "velocity": 0.5984251968503937,
          "duration": 0.3000000000000007
        },
        {
          "name": "D#5",
          "midi": 75,
          "time": 17.999999999999996,
          "velocity": 0.5984251968503937,
          "duration": 0.3000000000000007
        },
        {
          "name": "D#3",
          "midi": 51,
          "time": 17.999999999999996,
          "velocity": 0.6850393700787402,
          "duration": 0.6000000000000014
        },
        {
          "name": "F4",
          "midi": 65,
          "time": 18.3609375,
          "velocity": 0.5826771653543307,
          "duration": 0.2390624999999993
        },
        {
          "name": "A4",
          "midi": 69,
          "time": 18.3609375,
          "velocity": 0.5826771653543307,
          "duration": 0.2390624999999993
        },
        {
          "name": "C5",
          "midi": 72,
          "time": 18.3609375,
          "velocity": 0.5826771653543307,
          "duration": 0.2390624999999993
        },
        {
          "name": "D#5",
          "midi": 75,
          "time": 18.3609375,
          "velocity": 0.5826771653543307,
          "duration": 0.2390624999999993
        },
        {
          "name": "F4",
          "midi": 65,
          "time": 18.599999999999998,
          "velocity": 0.6377952755905512,
          "duration": 0.3000000000000007
        },
        {
          "name": "A4",
          "midi": 69,
          "time": 18.599999999999998,
          "velocity": 0.6377952755905512,
          "duration": 0.3000000000000007
        },
        {
          "name": "C5",
          "midi": 72,
          "time": 18.599999999999998,
          "velocity": 0.6377952755905512,
          "duration": 0.3000000000000007
        },
        {
          "name": "D#5",
          "midi": 75,
          "time": 18.599999999999998,
          "velocity": 0.6377952755905512,
          "duration": 0.3000000000000007
        },
        {
          "name": "F3",
          "midi": 53,
          "time": 18.599999999999998,
          "velocity": 0.6456692913385826,
          "duration": 0.6000000000000014
        },
        {
          "name": "F4",
          "midi": 65,
          "time": 18.9609375,
          "velocity": 0.5748031496062992,
          "duration": 0.2390624999999993
        },
        {
          "name": "A4",
          "midi": 69,
          "time": 18.9609375,
          "velocity": 0.5748031496062992,
          "duration": 0.2390624999999993
        },
        {
          "name": "C5",
          "midi": 72,
          "time": 18.9609375,
          "velocity": 0.5748031496062992,
          "duration": 0.2390624999999993
        },
        {
          "name": "D#5",
          "midi": 75,
          "time": 18.9609375,
          "velocity": 0.5748031496062992,
          "duration": 0.2390624999999993
        },
        {
          "name": "G4",
          "midi": 67,
          "time": 19.2,
          "velocity": 0.6692913385826772,
          "duration": 0.3000000000000007
        },
        {
          "name": "A#4",
          "midi": 70,
          "time": 19.2,
          "velocity": 0.6692913385826772,
          "duration": 0.3000000000000007
        },
        {
          "name": "C5",
          "midi": 72,
          "time": 19.2,
          "velocity": 0.6692913385826772,
          "duration": 0.3000000000000007
        },
        {
          "name": "E5",
          "midi": 76,
          "time": 19.2,
          "velocity": 0.6692913385826772,
          "duration": 0.3000000000000007
        },
        {
          "name": "C3",
          "midi": 48,
          "time": 19.2,
          "velocity": 0.5984251968503937,
          "duration": 0.3000000000000007
        },
        {
          "name": "G4",
          "midi": 67,
          "time": 19.5609375,
          "velocity": 0.5984251968503937,
          "duration": 0.2390624999999993
        },
        {
          "name": "A#4",
          "midi": 70,
          "time": 19.5609375,
          "velocity": 0.5984251968503937,
          "duration": 0.2390624999999993
        },
        {
          "name": "C5",
          "midi": 72,
          "time": 19.5609375,
          "velocity": 0.5984251968503937,
          "duration": 0.2390624999999993
        },
        {
          "name": "E5",
          "midi": 76,
          "time": 19.5609375,
          "velocity": 0.5984251968503937,
          "duration": 0.2390624999999993
        },
        {
          "name": "C3",
          "midi": 48,
          "time": 19.5609375,
          "velocity": 0.5669291338582677,
          "duration": 0.2390624999999993
        },
        {
          "name": "G4",
          "midi": 67,
          "time": 19.8,
          "velocity": 0.6456692913385826,
          "duration": 0.3000000000000007
        },
        {
          "name": "A#4",
          "midi": 70,
          "time": 19.8,
          "velocity": 0.6456692913385826,
          "duration": 0.3000000000000007
        },
        {
          "name": "C5",
          "midi": 72,
          "time": 19.8,
          "velocity": 0.6456692913385826,
          "duration": 0.3000000000000007
        },
        {
          "name": "E5",
          "midi": 76,
          "time": 19.8,
          "velocity": 0.6456692913385826,
          "duration": 0.3000000000000007
        },
        {
          "name": "G3",
          "midi": 55,
          "time": 19.8,
          "velocity": 0.7007874015748031,
          "duration": 0.3000000000000007
        },
        {
          "name": "G4",
          "midi": 67,
          "time": 20.160937500000003,
          "velocity": 0.5826771653543307,
          "duration": 0.2390624999999993
        },
        {
          "name": "A#4",
          "midi": 70,
          "time": 20.160937500000003,
          "velocity": 0.5826771653543307,
          "duration": 0.2390624999999993
        },
        {
          "name": "C5",
          "midi": 72,
          "time": 20.160937500000003,
          "velocity": 0.5826771653543307,
          "duration": 0.2390624999999993
        },
        {
          "name": "E5",
          "midi": 76,
          "time": 20.160937500000003,
          "velocity": 0.5826771653543307,
          "duration": 0.2390624999999993
        },
        {
          "name": "G3",
          "midi": 55,
          "time": 20.160937500000003,
          "velocity": 0.5984251968503937,
          "duration": 0.2390624999999993
        },
        {
          "name": "G4",
          "midi": 67,
          "time": 20.400000000000002,
          "velocity": 0.6614173228346457,
          "duration": 0.3000000000000007
        },
        {
          "name": "A#4",
          "midi": 70,
          "time": 20.400000000000002,
          "velocity": 0.6614173228346457,
          "duration": 0.3000000000000007
        },
        {
          "name": "C5",
          "midi": 72,
          "time": 20.400000000000002,
          "velocity": 0.6614173228346457,
          "duration": 0.3000000000000007
        },
        {
          "name": "E5",
          "midi": 76,
          "time": 20.400000000000002,
          "velocity": 0.6614173228346457,
          "duration": 0.3000000000000007
        },
        {
          "name": "A#3",
          "midi": 58,
          "time": 20.400000000000002,
          "velocity": 0.6535433070866141,
          "duration": 0.6000000000000014
        },
        {
          "name": "G4",
          "midi": 67,
          "time": 20.760937500000004,
          "velocity": 0.5748031496062992,
          "duration": 0.2390624999999993
        },
        {
          "name": "A#4",
          "midi": 70,
          "time": 20.760937500000004,
          "velocity": 0.5748031496062992,
          "duration": 0.2390624999999993
        },
        {
          "name": "C5",
          "midi": 72,
          "time": 20.760937500000004,
          "velocity": 0.5748031496062992,
          "duration": 0.2390624999999993
        },
        {
          "name": "E5",
          "midi": 76,
          "time": 20.760937500000004,
          "velocity": 0.5748031496062992,
          "duration": 0.2390624999999993
        },
        {
          "name": "G4",
          "midi": 67,
          "time": 21.000000000000004,
          "velocity": 0.6220472440944882,
          "duration": 0.3000000000000007
        },
        {
          "name": "A#4",
          "midi": 70,
          "time": 21.000000000000004,
          "velocity": 0.6220472440944882,
          "duration": 0.3000000000000007
        },
        {
          "name": "C5",
          "midi": 72,
          "time": 21.000000000000004,
          "velocity": 0.6220472440944882,
          "duration": 0.3000000000000007
        },
        {
          "name": "E5",
          "midi": 76,
          "time": 21.000000000000004,
          "velocity": 0.6220472440944882,
          "duration": 0.3000000000000007
        },
        {
          "name": "C4",
          "midi": 60,
          "time": 21.000000000000004,
          "velocity": 0.6299212598425197,
          "duration": 0.6000000000000014
        },
        {
          "name": "G4",
          "midi": 67,
          "time": 21.360937500000006,
          "velocity": 0.5511811023622047,
          "duration": 0.2390624999999993
        },
        {
          "name": "A#4",
          "midi": 70,
          "time": 21.360937500000006,
          "velocity": 0.5511811023622047,
          "duration": 0.2390624999999993
        },
        {
          "name": "C5",
          "midi": 72,
          "time": 21.360937500000006,
          "velocity": 0.5511811023622047,
          "duration": 0.2390624999999993
        },
        {
          "name": "E5",
          "midi": 76,
          "time": 21.360937500000006,
          "velocity": 0.5511811023622047,
          "duration": 0.2390624999999993
        },
        {
          "name": "F4",
          "midi": 65,
          "time": 21.600000000000005,
          "velocity": 0.5984251968503937,
          "duration": 0.3000000000000007
        },
        {
          "name": "G#4",
          "midi": 68,
          "time": 21.600000000000005,
          "velocity": 0.5984251968503937,
          "duration": 0.3000000000000007
        },
        {
          "name": "A#4",
          "midi": 70,
          "time": 21.600000000000005,
          "velocity": 0.5984251968503937,
          "duration": 0.3000000000000007
        },
        {
          "name": "D5",
          "midi": 74,
          "time": 21.600000000000005,
          "velocity": 0.5984251968503937,
          "duration": 0.3000000000000007
        },
        {
          "name": "A#2",
          "midi": 46,
          "time": 21.600000000000005,
          "velocity": 0.5669291338582677,
          "duration": 0.3000000000000007
        },
        {
          "name": "F4",
          "midi": 65,
          "time": 21.960937500000007,
          "velocity": 0.5669291338582677,
          "duration": 0.2390624999999993
        },
        {
          "name": "G#4",
          "midi": 68,
          "time": 21.960937500000007,
          "velocity": 0.5669291338582677,
          "duration": 0.2390624999999993
        },
        {
          "name": "A#4",
          "midi": 70,
          "time": 21.960937500000007,
          "velocity": 0.5669291338582677,
          "duration": 0.2390624999999993
        },
        {
          "name": "D5",
          "midi": 74,
          "time": 21.960937500000007,
          "velocity": 0.5669291338582677,
          "duration": 0.2390624999999993
        },
        {
          "name": "A#2",
          "midi": 46,
          "time": 21.960937500000007,
          "velocity": 0.5275590551181102,
          "duration": 0.2390624999999993
        },
        {
          "name": "F4",
          "midi": 65,
          "time": 22.200000000000006,
          "velocity": 0.5905511811023622,
          "duration": 0.3000000000000007
        },
        {
          "name": "G#4",
          "midi": 68,
          "time": 22.200000000000006,
          "velocity": 0.5905511811023622,
          "duration": 0.3000000000000007
        },
        {
          "name": "A#4",
          "midi": 70,
          "time": 22.200000000000006,
          "velocity": 0.5905511811023622,
          "duration": 0.3000000000000007
        },
        {
          "name": "D5",
          "midi": 74,
          "time": 22.200000000000006,
          "velocity": 0.5905511811023622,
          "duration": 0.3000000000000007
        },
        {
          "name": "F3",
          "midi": 53,
          "time": 22.200000000000006,
          "velocity": 0.6614173228346457,
          "duration": 0.3000000000000007
        },
        {
          "name": "F4",
          "midi": 65,
          "time": 22.56093750000001,
          "velocity": 0.5590551181102362,
          "duration": 0.2390624999999993
        },
        {
          "name": "G#4",
          "midi": 68,
          "time": 22.56093750000001,
          "velocity": 0.5590551181102362,
          "duration": 0.2390624999999993
        },
        {
          "name": "A#4",
          "midi": 70,
          "time": 22.56093750000001,
          "velocity": 0.5590551181102362,
          "duration": 0.2390624999999993
        },
        {
          "name": "D5",
          "midi": 74,
          "time": 22.56093750000001,
          "velocity": 0.5590551181102362,
          "duration": 0.2390624999999993
        },
        {
          "name": "F3",
          "midi": 53,
          "time": 22.56093750000001,
          "velocity": 0.5984251968503937,
          "duration": 0.2390624999999993
        },
        {
          "name": "F4",
          "midi": 65,
          "time": 22.800000000000008,
          "velocity": 0.6220472440944882,
          "duration": 0.3000000000000007
        },
        {
          "name": "G#4",
          "midi": 68,
          "time": 22.800000000000008,
          "velocity": 0.6220472440944882,
          "duration": 0.3000000000000007
        },
        {
          "name": "A#4",
          "midi": 70,
          "time": 22.800000000000008,
          "velocity": 0.6220472440944882,
          "duration": 0.3000000000000007
        },
        {
          "name": "D5",
          "midi": 74,
          "time": 22.800000000000008,
          "velocity": 0.6220472440944882,
          "duration": 0.3000000000000007
        },
        {
          "name": "G#3",
          "midi": 56,
          "time": 22.800000000000008,
          "velocity": 0.6299212598425197,
          "duration": 0.6000000000000014
        },
        {
          "name": "F4",
          "midi": 65,
          "time": 23.16093750000001,
          "velocity": 0.5433070866141733,
          "duration": 0.2390624999999993
        },
        {
          "name": "G#4",
          "midi": 68,
          "time": 23.16093750000001,
          "velocity": 0.5433070866141733,
          "duration": 0.2390624999999993
        },
        {
          "name": "A#4",
          "midi": 70,
          "time": 23.16093750000001,
          "velocity": 0.5433070866141733,
          "duration": 0.2390624999999993
        },
        {
          "name": "D5",
          "midi": 74,
          "time": 23.16093750000001,
          "velocity": 0.5433070866141733,
          "duration": 0.2390624999999993
        },
        {
          "name": "F4",
          "midi": 65,
          "time": 23.40000000000001,
          "velocity": 0.6299212598425197,
          "duration": 0.3000000000000007
        },
        {
          "name": "G#4",
          "midi": 68,
          "time": 23.40000000000001,
          "velocity": 0.6299212598425197,
          "duration": 0.3000000000000007
        },
        {
          "name": "A#4",
          "midi": 70,
          "time": 23.40000000000001,
          "velocity": 0.6299212598425197,
          "duration": 0.3000000000000007
        },
        {
          "name": "D5",
          "midi": 74,
          "time": 23.40000000000001,
          "velocity": 0.6299212598425197,
          "duration": 0.3000000000000007
        },
        {
          "name": "A#3",
          "midi": 58,
          "time": 23.40000000000001,
          "velocity": 0.6535433070866141,
          "duration": 0.6000000000000014
        },
        {
          "name": "F4",
          "midi": 65,
          "time": 23.76093750000001,
          "velocity": 0.5984251968503937,
          "duration": 0.2390624999999993
        },
        {
          "name": "G#4",
          "midi": 68,
          "time": 23.76093750000001,
          "velocity": 0.5984251968503937,
          "duration": 0.2390624999999993
        },
        {
          "name": "A#4",
          "midi": 70,
          "time": 23.76093750000001,
          "velocity": 0.5984251968503937,
          "duration": 0.2390624999999993
        },
        {
          "name": "D5",
          "midi": 74,
          "time": 23.76093750000001,
          "velocity": 0.5984251968503937,
          "duration": 0.2390624999999993
        },
        {
          "name": "F4",
          "midi": 65,
          "time": 24.00000000000001,
          "velocity": 0.7007874015748031,
          "duration": 0.3000000000000007
        },
        {
          "name": "A4",
          "midi": 69,
          "time": 24.00000000000001,
          "velocity": 0.7007874015748031,
          "duration": 0.3000000000000007
        },
        {
          "name": "C5",
          "midi": 72,
          "time": 24.00000000000001,
          "velocity": 0.7007874015748031,
          "duration": 0.3000000000000007
        },
        {
          "name": "D#5",
          "midi": 75,
          "time": 24.00000000000001,
          "velocity": 0.7007874015748031,
          "duration": 0.3000000000000007
        },
        {
          "name": "F2",
          "midi": 41,
          "time": 24.00000000000001,
          "velocity": 0.5748031496062992,
          "duration": 0.3000000000000007
        },
        {
          "name": "F4",
          "midi": 65,
          "time": 24.360937500000013,
          "velocity": 0.5590551181102362,
          "duration": 0.2390624999999993
        },
        {
          "name": "A4",
          "midi": 69,
          "time": 24.360937500000013,
          "velocity": 0.5590551181102362,
          "duration": 0.2390624999999993
        },
        {
          "name": "C5",
          "midi": 72,
          "time": 24.360937500000013,
          "velocity": 0.5590551181102362,
          "duration": 0.2390624999999993
        },
        {
          "name": "D#5",
          "midi": 75,
          "time": 24.360937500000013,
          "velocity": 0.5590551181102362,
          "duration": 0.2390624999999993
        },
        {
          "name": "F2",
          "midi": 41,
          "time": 24.360937500000013,
          "velocity": 0.5511811023622047,
          "duration": 0.2390624999999993
        },
        {
          "name": "F4",
          "midi": 65,
          "time": 24.600000000000012,
          "velocity": 0.6692913385826772,
          "duration": 0.3000000000000007
        },
        {
          "name": "A4",
          "midi": 69,
          "time": 24.600000000000012,
          "velocity": 0.6692913385826772,
          "duration": 0.3000000000000007
        },
        {
          "name": "C5",
          "midi": 72,
          "time": 24.600000000000012,
          "velocity": 0.6692913385826772,
          "duration": 0.3000000000000007
        },
        {
          "name": "D#5",
          "midi": 75,
          "time": 24.600000000000012,
          "velocity": 0.6692913385826772,
          "duration": 0.3000000000000007
        },
        {
          "name": "C3",
          "midi": 48,
          "time": 24.600000000000012,
          "velocity": 0.7244094488188977,
          "duration": 0.3000000000000007
        },
        {
          "name": "F4",
          "midi": 65,
          "time": 24.960937500000014,
          "velocity": 0.5590551181102362,
          "duration": 0.2390624999999993
        },
        {
          "name": "A4",
          "midi": 69,
          "time": 24.960937500000014,
          "velocity": 0.5590551181102362,
          "duration": 0.2390624999999993
        },
        {
          "name": "C5",
          "midi": 72,
          "time": 24.960937500000014,
          "velocity": 0.5590551181102362,
          "duration": 0.2390624999999993
        },
        {
          "name": "D#5",
          "midi": 75,
          "time": 24.960937500000014,
          "velocity": 0.5590551181102362,
          "duration": 0.2390624999999993
        },
        {
          "name": "C3",
          "midi": 48,
          "time": 24.960937500000014,
          "velocity": 0.5590551181102362,
          "duration": 0.2390624999999993
        },
        {
          "name": "F4",
          "midi": 65,
          "time": 25.200000000000014,
          "velocity": 0.6062992125984252,
          "duration": 0.3000000000000007
        },
        {
          "name": "A4",
          "midi": 69,
          "time": 25.200000000000014,
          "velocity": 0.6062992125984252,
          "duration": 0.3000000000000007
        },
        {
          "name": "C5",
          "midi": 72,
          "time": 25.200000000000014,
          "velocity": 0.6062992125984252,
          "duration": 0.3000000000000007
        },
        {
          "name": "D#5",
          "midi": 75,
          "time": 25.200000000000014,
          "velocity": 0.6062992125984252,
          "duration": 0.3000000000000007
        },
        {
          "name": "D#3",
          "midi": 51,
          "time": 25.200000000000014,
          "velocity": 0.6614173228346457,
          "duration": 0.6000000000000014
        },
        {
          "name": "F4",
          "midi": 65,
          "time": 25.560937500000016,
          "velocity": 0.5826771653543307,
          "duration": 0.2390624999999993
        },
        {
          "name": "A4",
          "midi": 69,
          "time": 25.560937500000016,
          "velocity": 0.5826771653543307,
          "duration": 0.2390624999999993
        },
        {
          "name": "C5",
          "midi": 72,
          "time": 25.560937500000016,
          "velocity": 0.5826771653543307,
          "duration": 0.2390624999999993
        },
        {
          "name": "D#5",
          "midi": 75,
          "time": 25.560937500000016,
          "velocity": 0.5826771653543307,
          "duration": 0.2390624999999993
        },
        {
          "name": "F4",
          "midi": 65,
          "time": 25.800000000000015,
          "velocity": 0.6377952755905512,
          "duration": 0.3000000000000007
        },
        {
          "name": "A4",
          "midi": 69,
          "time": 25.800000000000015,
          "velocity": 0.6377952755905512,
          "duration": 0.3000000000000007
        },
        {
          "name": "C5",
          "midi": 72,
          "time": 25.800000000000015,
          "velocity": 0.6377952755905512,
          "duration": 0.3000000000000007
        },
        {
          "name": "D#5",
          "midi": 75,
          "time": 25.800000000000015,
          "velocity": 0.6377952755905512,
          "duration": 0.3000000000000007
        },
        {
          "name": "F3",
          "midi": 53,
          "time": 25.800000000000015,
          "velocity": 0.6771653543307087,
          "duration": 0.6000000000000014
        },
        {
          "name": "F4",
          "midi": 65,
          "time": 26.160937500000017,
          "velocity": 0.5590551181102362,
          "duration": 0.2390624999999993
        },
        {
          "name": "A4",
          "midi": 69,
          "time": 26.160937500000017,
          "velocity": 0.5590551181102362,
          "duration": 0.2390624999999993
        },
        {
          "name": "C5",
          "midi": 72,
          "time": 26.160937500000017,
          "velocity": 0.5590551181102362,
          "duration": 0.2390624999999993
        },
        {
          "name": "D#5",
          "midi": 75,
          "time": 26.160937500000017,
          "velocity": 0.5590551181102362,
          "duration": 0.2390624999999993
        },
        {
          "name": "C2",
          "midi": 36,
          "time": 26.400000000000016,
          "velocity": 0.5354330708661418,
          "duration": 0.3000000000000007
        },
        {
          "name": "A#3",
          "midi": 58,
          "time": 26.76093750000002,
          "velocity": 0.49606299212598426,
          "duration": 0.2390624999999993
        },
        {
          "name": "D#4",
          "midi": 63,
          "time": 26.76093750000002,
          "velocity": 0.49606299212598426,
          "duration": 0.2390624999999993
        },
        {
          "name": "C3",
          "midi": 48,
          "time": 26.76093750000002,
          "velocity": 0.6456692913385826,
          "duration": 0.2390624999999993
        },
        {
          "name": "E3",
          "midi": 52,
          "time": 26.76093750000002,
          "velocity": 0.6456692913385826,
          "duration": 0.2390624999999993
        },
        {
          "name": "A#3",
          "midi": 58,
          "time": 27.000000000000018,
          "velocity": 0.6377952755905512,
          "duration": 0.3000000000000007
        },
        {
          "name": "D#4",
          "midi": 63,
          "time": 27.000000000000018,
          "velocity": 0.6377952755905512,
          "duration": 0.3000000000000007
        },
        {
          "name": "C3",
          "midi": 48,
          "time": 27.000000000000018,
          "velocity": 0.6377952755905512,
          "duration": 0.3000000000000007
        },
        {
          "name": "E3",
          "midi": 52,
          "time": 27.000000000000018,
          "velocity": 0.6377952755905512,
          "duration": 0.3000000000000007
        },
        {
          "name": "A#3",
          "midi": 58,
          "time": 27.36093750000002,
          "velocity": 0.5590551181102362,
          "duration": 0.2390624999999993
        },
        {
          "name": "D#4",
          "midi": 63,
          "time": 27.36093750000002,
          "velocity": 0.5590551181102362,
          "duration": 0.2390624999999993
        },
        {
          "name": "C3",
          "midi": 48,
          "time": 27.36093750000002,
          "velocity": 0.5748031496062992,
          "duration": 0.2390624999999993
        },
        {
          "name": "E3",
          "midi": 52,
          "time": 27.36093750000002,
          "velocity": 0.5748031496062992,
          "duration": 0.2390624999999993
        },
        {
          "name": "A#3",
          "midi": 58,
          "time": 27.60000000000002,
          "velocity": 0.6377952755905512,
          "duration": 0.3000000000000007
        },
        {
          "name": "D#4",
          "midi": 63,
          "time": 27.60000000000002,
          "velocity": 0.6377952755905512,
          "duration": 0.3000000000000007
        },
        {
          "name": "C3",
          "midi": 48,
          "time": 27.60000000000002,
          "velocity": 0.6299212598425197,
          "duration": 0.3000000000000007
        },
        {
          "name": "E3",
          "midi": 52,
          "time": 27.60000000000002,
          "velocity": 0.6299212598425197,
          "duration": 0.3000000000000007
        },
        {
          "name": "A#3",
          "midi": 58,
          "time": 27.96093750000002,
          "velocity": 0.5669291338582677,
          "duration": 0.2390624999999993
        },
        {
          "name": "D#4",
          "midi": 63,
          "time": 27.96093750000002,
          "velocity": 0.5669291338582677,
          "duration": 0.2390624999999993
        },
        {
          "name": "C3",
          "midi": 48,
          "time": 27.96093750000002,
          "velocity": 0.5748031496062992,
          "duration": 0.2390624999999993
        },
        {
          "name": "E3",
          "midi": 52,
          "time": 27.96093750000002,
          "velocity": 0.5748031496062992,
          "duration": 0.2390624999999993
        },
        {
          "name": "A#3",
          "midi": 58,
          "time": 28.20000000000002,
          "velocity": 0.6535433070866141,
          "duration": 0.3000000000000007
        },
        {
          "name": "D#4",
          "midi": 63,
          "time": 28.20000000000002,
          "velocity": 0.6535433070866141,
          "duration": 0.3000000000000007
        },
        {
          "name": "C3",
          "midi": 48,
          "time": 28.20000000000002,
          "velocity": 0.6220472440944882,
          "duration": 0.3000000000000007
        },
        {
          "name": "E3",
          "midi": 52,
          "time": 28.20000000000002,
          "velocity": 0.6220472440944882,
          "duration": 0.3000000000000007
        },
        {
          "name": "A#3",
          "midi": 58,
          "time": 28.560937500000023,
          "velocity": 0.5748031496062992,
          "duration": 0.2390624999999993
        },
        {
          "name": "D#4",
          "midi": 63,
          "time": 28.560937500000023,
          "velocity": 0.5748031496062992,
          "duration": 0.2390624999999993
        },
        {
          "name": "C3",
          "midi": 48,
          "time": 28.560937500000023,
          "velocity": 0.5748031496062992,
          "duration": 0.2390624999999993
        },
        {
          "name": "E3",
          "midi": 52,
          "time": 28.560937500000023,
          "velocity": 0.5748031496062992,
          "duration": 0.2390624999999993
        },
        {
          "name": "F2",
          "midi": 41,
          "time": 28.800000000000022,
          "velocity": 0.5511811023622047,
          "duration": 0.3000000000000007
        },
        {
          "name": "F2",
          "midi": 41,
          "time": 29.160937500000024,
          "velocity": 0.5905511811023622,
          "duration": 0.2390624999999993
        },
        {
          "name": "C3",
          "midi": 48,
          "time": 29.400000000000023,
          "velocity": 0.6771653543307087,
          "duration": 0.3000000000000007
        },
        {
          "name": "C3",
          "midi": 48,
          "time": 29.760937500000026,
          "velocity": 0.5669291338582677,
          "duration": 0.2390624999999993
        },
        {
          "name": "D#3",
          "midi": 51,
          "time": 30.000000000000025,
          "velocity": 0.6299212598425197,
          "duration": 0.6000000000000014
        },
        {
          "name": "F3",
          "midi": 53,
          "time": 30.600000000000026,
          "velocity": 0.6771653543307087,
          "duration": 0.6000000000000014
        },
        {
          "name": "A#2",
          "midi": 46,
          "time": 31.200000000000028,
          "velocity": 0.5748031496062992,
          "duration": 0.3000000000000007
        },
        {
          "name": "A#2",
          "midi": 46,
          "time": 31.56093750000003,
          "velocity": 0.5748031496062992,
          "duration": 0.2390624999999993
        },
        {
          "name": "F3",
          "midi": 53,
          "time": 31.80000000000003,
          "velocity": 0.7007874015748031,
          "duration": 0.3000000000000007
        },
        {
          "name": "F3",
          "midi": 53,
          "time": 32.16093750000003,
          "velocity": 0.5905511811023622,
          "duration": 0.23906250000000284
        },
        {
          "name": "G#3",
          "midi": 56,
          "time": 32.400000000000034,
          "velocity": 0.6456692913385826,
          "duration": 0.6000000000000014
        },
        {
          "name": "A#3",
          "midi": 58,
          "time": 33.000000000000036,
          "velocity": 0.6456692913385826,
          "duration": 0.6000000000000014
        },
        {
          "name": "F2",
          "midi": 41,
          "time": 33.60000000000004,
          "velocity": 0.5590551181102362,
          "duration": 0.29999999999999716
        },
        {
          "name": "F2",
          "midi": 41,
          "time": 33.960937500000036,
          "velocity": 0.5354330708661418,
          "duration": 0.23906250000000284
        },
        {
          "name": "C3",
          "midi": 48,
          "time": 34.20000000000004,
          "velocity": 0.6692913385826772,
          "duration": 0.29999999999999716
        },
        {
          "name": "C3",
          "midi": 48,
          "time": 34.56093750000004,
          "velocity": 0.5905511811023622,
          "duration": 0.23906250000000284
        },
        {
          "name": "D#3",
          "midi": 51,
          "time": 34.80000000000004,
          "velocity": 0.6141732283464567,
          "duration": 0.6000000000000014
        },
        {
          "name": "F3",
          "midi": 53,
          "time": 35.40000000000004,
          "velocity": 0.6377952755905512,
          "duration": 0.6000000000000014
        },
        {
          "name": "F2",
          "midi": 41,
          "time": 36.00000000000004,
          "velocity": 0.5669291338582677,
          "duration": 0.29999999999999716
        },
        {
          "name": "F2",
          "midi": 41,
          "time": 36.36093750000004,
          "velocity": 0.5511811023622047,
          "duration": 0.23906250000000284
        },
        {
          "name": "C3",
          "midi": 48,
          "time": 36.600000000000044,
          "velocity": 0.6850393700787402,
          "duration": 0.29999999999999716
        },
        {
          "name": "C3",
          "midi": 48,
          "time": 36.96093750000004,
          "velocity": 0.5669291338582677,
          "duration": 0.23906250000000284
        },
        {
          "name": "D#3",
          "midi": 51,
          "time": 37.200000000000045,
          "velocity": 0.6535433070866141,
          "duration": 0.6000000000000014
        },
        {
          "name": "F3",
          "midi": 53,
          "time": 37.80000000000005,
          "velocity": 0.6456692913385826,
          "duration": 0.6000000000000014
        },
        {
          "name": "A#2",
          "midi": 46,
          "time": 38.40000000000005,
          "velocity": 0.5590551181102362,
          "duration": 0.29999999999999716
        },
        {
          "name": "A#2",
          "midi": 46,
          "time": 38.76093750000005,
          "velocity": 0.5669291338582677,
          "duration": 0.23906250000000284
        },
        {
          "name": "F3",
          "midi": 53,
          "time": 39.00000000000005,
          "velocity": 0.7086614173228346,
          "duration": 0.29999999999999716
        },
        {
          "name": "F3",
          "midi": 53,
          "time": 39.36093750000005,
          "velocity": 0.5590551181102362,
          "duration": 0.23906250000000284
        },
        {
          "name": "G#3",
          "midi": 56,
          "time": 39.60000000000005,
          "velocity": 0.6850393700787402,
          "duration": 0.6000000000000014
        },
        {
          "name": "A#3",
          "midi": 58,
          "time": 40.20000000000005,
          "velocity": 0.6692913385826772,
          "duration": 0.6000000000000014
        },
        {
          "name": "A#2",
          "midi": 46,
          "time": 40.800000000000054,
          "velocity": 0.5354330708661418,
          "duration": 0.29999999999999716
        },
        {
          "name": "A#2",
          "midi": 46,
          "time": 41.16093750000005,
          "velocity": 0.5669291338582677,
          "duration": 0.23906250000000284
        },
        {
          "name": "F3",
          "midi": 53,
          "time": 41.400000000000055,
          "velocity": 0.6850393700787402,
          "duration": 0.29999999999999716
        },
        {
          "name": "F3",
          "midi": 53,
          "time": 41.760937500000054,
          "velocity": 0.5354330708661418,
          "duration": 0.23906250000000284
        },
        {
          "name": "G#3",
          "midi": 56,
          "time": 42.00000000000006,
          "velocity": 0.6535433070866141,
          "duration": 0.6000000000000014
        },
        {
          "name": "A#3",
          "midi": 58,
          "time": 42.60000000000006,
          "velocity": 0.6614173228346457,
          "duration": 0.6000000000000014
        },
        {
          "name": "F2",
          "midi": 41,
          "time": 43.20000000000006,
          "velocity": 0.5590551181102362,
          "duration": 0.29999999999999716
        },
        {
          "name": "F2",
          "midi": 41,
          "time": 43.56093750000006,
          "velocity": 0.5433070866141733,
          "duration": 0.23906250000000284
        },
        {
          "name": "C3",
          "midi": 48,
          "time": 43.80000000000006,
          "velocity": 0.7244094488188977,
          "duration": 0.29999999999999716
        },
        {
          "name": "C3",
          "midi": 48,
          "time": 44.16093750000006,
          "velocity": 0.5748031496062992,
          "duration": 0.23906250000000284
        },
        {
          "name": "D#3",
          "midi": 51,
          "time": 44.40000000000006,
          "velocity": 0.6614173228346457,
          "duration": 0.6000000000000014
        },
        {
          "name": "F3",
          "midi": 53,
          "time": 45.000000000000064,
          "velocity": 0.6220472440944882,
          "duration": 0.6000000000000014
        },
        {
          "name": "F2",
          "midi": 41,
          "time": 45.600000000000065,
          "velocity": 0.5275590551181102,
          "duration": 0.29999999999999716
        },
        {
          "name": "F2",
          "midi": 41,
          "time": 45.960937500000064,
          "velocity": 0.5590551181102362,
          "duration": 0.23906250000000284
        },
        {
          "name": "C3",
          "midi": 48,
          "time": 46.20000000000007,
          "velocity": 0.6456692913385826,
          "duration": 0.29999999999999716
        },
        {
          "name": "C3",
          "midi": 48,
          "time": 46.560937500000065,
          "velocity": 0.5590551181102362,
          "duration": 0.23906250000000284
        },
        {
          "name": "D#3",
          "midi": 51,
          "time": 46.80000000000007,
          "velocity": 0.6535433070866141,
          "duration": 0.6000000000000014
        },
        {
          "name": "F3",
          "midi": 53,
          "time": 47.40000000000007,
          "velocity": 0.6535433070866141,
          "duration": 0.6000000000000014
        },
        {
          "name": "C3",
          "midi": 48,
          "time": 48.00000000000007,
          "velocity": 0.5669291338582677,
          "duration": 0.29999999999999716
        },
        {
          "name": "C3",
          "midi": 48,
          "time": 48.36093750000007,
          "velocity": 0.5905511811023622,
          "duration": 0.23906250000000284
        },
        {
          "name": "G3",
          "midi": 55,
          "time": 48.60000000000007,
          "velocity": 0.6692913385826772,
          "duration": 0.29999999999999716
        },
        {
          "name": "G3",
          "midi": 55,
          "time": 48.96093750000007,
          "velocity": 0.5905511811023622,
          "duration": 0.23906250000000284
        },
        {
          "name": "A#3",
          "midi": 58,
          "time": 49.200000000000074,
          "velocity": 0.6614173228346457,
          "duration": 0.6000000000000014
        },
        {
          "name": "C4",
          "midi": 60,
          "time": 49.800000000000075,
          "velocity": 0.7007874015748031,
          "duration": 0.6000000000000014
        },
        {
          "name": "A#2",
          "midi": 46,
          "time": 50.40000000000008,
          "velocity": 0.5433070866141733,
          "duration": 0.29999999999999716
        },
        {
          "name": "A#2",
          "midi": 46,
          "time": 50.760937500000075,
          "velocity": 0.5433070866141733,
          "duration": 0.23906250000000284
        },
        {
          "name": "F3",
          "midi": 53,
          "time": 51.00000000000008,
          "velocity": 0.6535433070866141,
          "duration": 0.29999999999999716
        },
        {
          "name": "F3",
          "midi": 53,
          "time": 51.36093750000008,
          "velocity": 0.5984251968503937,
          "duration": 0.23906250000000284
        },
        {
          "name": "G#3",
          "midi": 56,
          "time": 51.60000000000008,
          "velocity": 0.6614173228346457,
          "duration": 0.6000000000000014
        },
        {
          "name": "A#3",
          "midi": 58,
          "time": 52.20000000000008,
          "velocity": 0.6614173228346457,
          "duration": 0.6000000000000014
        },
        {
          "name": "F2",
          "midi": 41,
          "time": 52.80000000000008,
          "velocity": 0.5590551181102362,
          "duration": 0.29999999999999716
        },
        {
          "name": "F2",
          "midi": 41,
          "time": 53.16093750000008,
          "velocity": 0.5433070866141733,
          "duration": 0.23906250000000284
        },
        {
          "name": "C3",
          "midi": 48,
          "time": 53.400000000000084,
          "velocity": 0.6692913385826772,
          "duration": 0.29999999999999716
        },
        {
          "name": "C3",
          "midi": 48,
          "time": 53.76093750000008,
          "velocity": 0.5748031496062992,
          "duration": 0.23906250000000284
        },
        {
          "name": "D#3",
          "midi": 51,
          "time": 54.000000000000085,
          "velocity": 0.6692913385826772,
          "duration": 0.6000000000000014
        },
        {
          "name": "F3",
          "midi": 53,
          "time": 54.60000000000009,
          "velocity": 0.6614173228346457,
          "duration": 0.6000000000000014
        },
        {
          "name": "C2",
          "midi": 36,
          "time": 55.20000000000009,
          "velocity": 0.5590551181102362,
          "duration": 0.29999999999999716
        },
        {
          "name": "C3",
          "midi": 48,
          "time": 55.56093750000009,
          "velocity": 0.6614173228346457,
          "duration": 0.23906250000000284
        },
        {
          "name": "E3",
          "midi": 52,
          "time": 55.56093750000009,
          "velocity": 0.6614173228346457,
          "duration": 0.23906250000000284
        },
        {
          "name": "C3",
          "midi": 48,
          "time": 55.80000000000009,
          "velocity": 0.6377952755905512,
          "duration": 0.29999999999999716
        },
        {
          "name": "E3",
          "midi": 52,
          "time": 55.80000000000009,
          "velocity": 0.6377952755905512,
          "duration": 0.29999999999999716
        },
        {
          "name": "C3",
          "midi": 48,
          "time": 56.16093750000009,
          "velocity": 0.5511811023622047,
          "duration": 0.23906250000000284
        },
        {
          "name": "E3",
          "midi": 52,
          "time": 56.16093750000009,
          "velocity": 0.5511811023622047,
          "duration": 0.23906250000000284
        },
        {
          "name": "C3",
          "midi": 48,
          "time": 56.40000000000009,
          "velocity": 0.6220472440944882,
          "duration": 0.29999999999999716
        },
        {
          "name": "E3",
          "midi": 52,
          "time": 56.40000000000009,
          "velocity": 0.6220472440944882,
          "duration": 0.29999999999999716
        },
        {
          "name": "C3",
          "midi": 48,
          "time": 56.76093750000009,
          "velocity": 0.5826771653543307,
          "duration": 0.23906250000000284
        },
        {
          "name": "E3",
          "midi": 52,
          "time": 56.76093750000009,
          "velocity": 0.5826771653543307,
          "duration": 0.23906250000000284
        },
        {
          "name": "C3",
          "midi": 48,
          "time": 57.00000000000009,
          "velocity": 0.6377952755905512,
          "duration": 0.29999999999999716
        },
        {
          "name": "E3",
          "midi": 52,
          "time": 57.00000000000009,
          "velocity": 0.6377952755905512,
          "duration": 0.29999999999999716
        },
        {
          "name": "C3",
          "midi": 48,
          "time": 57.36093750000009,
          "velocity": 0.5433070866141733,
          "duration": 0.23906250000000284
        },
        {
          "name": "E3",
          "midi": 52,
          "time": 57.36093750000009,
          "velocity": 0.5433070866141733,
          "duration": 0.23906250000000284
        },
        {
          "name": "F4",
          "midi": 65,
          "time": 57.600000000000094,
          "velocity": 0.8267716535433071,
          "duration": 0.29999999999999716
        },
        {
          "name": "A4",
          "midi": 69,
          "time": 57.600000000000094,
          "velocity": 0.8267716535433071,
          "duration": 0.29999999999999716
        },
        {
          "name": "C5",
          "midi": 72,
          "time": 57.600000000000094,
          "velocity": 0.8267716535433071,
          "duration": 0.29999999999999716
        },
        {
          "name": "D#5",
          "midi": 75,
          "time": 57.600000000000094,
          "velocity": 0.8267716535433071,
          "duration": 0.29999999999999716
        },
        {
          "name": "F2",
          "midi": 41,
          "time": 57.600000000000094,
          "velocity": 0.5748031496062992,
          "duration": 0.29999999999999716
        },
        {
          "name": "F4",
          "midi": 65,
          "time": 57.96093750000009,
          "velocity": 0.5984251968503937,
          "duration": 0.23906250000000284
        },
        {
          "name": "A4",
          "midi": 69,
          "time": 57.96093750000009,
          "velocity": 0.5984251968503937,
          "duration": 0.23906250000000284
        },
        {
          "name": "C5",
          "midi": 72,
          "time": 57.96093750000009,
          "velocity": 0.5984251968503937,
          "duration": 0.23906250000000284
        },
        {
          "name": "D#5",
          "midi": 75,
          "time": 57.96093750000009,
          "velocity": 0.5984251968503937,
          "duration": 0.23906250000000284
        },
        {
          "name": "F2",
          "midi": 41,
          "time": 57.96093750000009,
          "velocity": 0.5669291338582677,
          "duration": 0.23906250000000284
        },
        {
          "name": "F4",
          "midi": 65,
          "time": 58.200000000000095,
          "velocity": 0.6535433070866141,
          "duration": 0.29999999999999716
        },
        {
          "name": "A4",
          "midi": 69,
          "time": 58.200000000000095,
          "velocity": 0.6535433070866141,
          "duration": 0.29999999999999716
        },
        {
          "name": "C5",
          "midi": 72,
          "time": 58.200000000000095,
          "velocity": 0.6535433070866141,
          "duration": 0.29999999999999716
        },
        {
          "name": "D#5",
          "midi": 75,
          "time": 58.200000000000095,
          "velocity": 0.6535433070866141,
          "duration": 0.29999999999999716
        },
        {
          "name": "C3",
          "midi": 48,
          "time": 58.200000000000095,
          "velocity": 0.6850393700787402,
          "duration": 0.29999999999999716
        },
        {
          "name": "F4",
          "midi": 65,
          "time": 58.560937500000094,
          "velocity": 0.5826771653543307,
          "duration": 0.23906250000000284
        },
        {
          "name": "A4",
          "midi": 69,
          "time": 58.560937500000094,
          "velocity": 0.5826771653543307,
          "duration": 0.23906250000000284
        },
        {
          "name": "C5",
          "midi": 72,
          "time": 58.560937500000094,
          "velocity": 0.5826771653543307,
          "duration": 0.23906250000000284
        },
        {
          "name": "D#5",
          "midi": 75,
          "time": 58.560937500000094,
          "velocity": 0.5826771653543307,
          "duration": 0.23906250000000284
        },
        {
          "name": "C3",
          "midi": 48,
          "time": 58.560937500000094,
          "velocity": 0.5590551181102362,
          "duration": 0.23906250000000284
        },
        {
          "name": "F4",
          "midi": 65,
          "time": 58.8000000000001,
          "velocity": 0.6377952755905512,
          "duration": 0.29999999999999716
        },
        {
          "name": "A4",
          "midi": 69,
          "time": 58.8000000000001,
          "velocity": 0.6377952755905512,
          "duration": 0.29999999999999716
        },
        {
          "name": "C5",
          "midi": 72,
          "time": 58.8000000000001,
          "velocity": 0.6377952755905512,
          "duration": 0.29999999999999716
        },
        {
          "name": "D#5",
          "midi": 75,
          "time": 58.8000000000001,
          "velocity": 0.6377952755905512,
          "duration": 0.29999999999999716
        },
        {
          "name": "D#3",
          "midi": 51,
          "time": 58.8000000000001,
          "velocity": 0.6456692913385826,
          "duration": 0.6000000000000014
        },
        {
          "name": "F4",
          "midi": 65,
          "time": 59.160937500000095,
          "velocity": 0.5433070866141733,
          "duration": 0.23906250000000284
        },
        {
          "name": "A4",
          "midi": 69,
          "time": 59.160937500000095,
          "velocity": 0.5433070866141733,
          "duration": 0.23906250000000284
        },
        {
          "name": "C5",
          "midi": 72,
          "time": 59.160937500000095,
          "velocity": 0.5433070866141733,
          "duration": 0.23906250000000284
        },
        {
          "name": "D#5",
          "midi": 75,
          "time": 59.160937500000095,
          "velocity": 0.5433070866141733,
          "duration": 0.23906250000000284
        },
        {
          "name": "F4",
          "midi": 65,
          "time": 59.4000000000001,
          "velocity": 0.6377952755905512,
          "duration": 0.29999999999999716
        },
        {
          "name": "A4",
          "midi": 69,
          "time": 59.4000000000001,
          "velocity": 0.6377952755905512,
          "duration": 0.29999999999999716
        },
        {
          "name": "C5",
          "midi": 72,
          "time": 59.4000000000001,
          "velocity": 0.6377952755905512,
          "duration": 0.29999999999999716
        },
        {
          "name": "D#5",
          "midi": 75,
          "time": 59.4000000000001,
          "velocity": 0.6377952755905512,
          "duration": 0.29999999999999716
        },
        {
          "name": "F3",
          "midi": 53,
          "time": 59.4000000000001,
          "velocity": 0.6850393700787402,
          "duration": 0.6000000000000014
        },
        {
          "name": "F4",
          "midi": 65,
          "time": 59.7609375000001,
          "velocity": 0.5590551181102362,
          "duration": 0.23906250000000284
        },
        {
          "name": "A4",
          "midi": 69,
          "time": 59.7609375000001,
          "velocity": 0.5590551181102362,
          "duration": 0.23906250000000284
        },
        {
          "name": "C5",
          "midi": 72,
          "time": 59.7609375000001,
          "velocity": 0.5590551181102362,
          "duration": 0.23906250000000284
        },
        {
          "name": "D#5",
          "midi": 75,
          "time": 59.7609375000001,
          "velocity": 0.5590551181102362,
          "duration": 0.23906250000000284
        },
        {
          "name": "F4",
          "midi": 65,
          "time": 60.0000000000001,
          "velocity": 0.6141732283464567,
          "duration": 0.29999999999999716
        },
        {
          "name": "G#4",
          "midi": 68,
          "time": 60.0000000000001,
          "velocity": 0.6141732283464567,
          "duration": 0.29999999999999716
        },
        {
          "name": "A#4",
          "midi": 70,
          "time": 60.0000000000001,
          "velocity": 0.6141732283464567,
          "duration": 0.29999999999999716
        },
        {
          "name": "D5",
          "midi": 74,
          "time": 60.0000000000001,
          "velocity": 0.6141732283464567,
          "duration": 0.29999999999999716
        },
        {
          "name": "A#2",
          "midi": 46,
          "time": 60.0000000000001,
          "velocity": 0.5905511811023622,
          "duration": 0.29999999999999716
        },
        {
          "name": "F4",
          "midi": 65,
          "time": 60.3609375000001,
          "velocity": 0.5590551181102362,
          "duration": 0.23906250000000284
        },
        {
          "name": "G#4",
          "midi": 68,
          "time": 60.3609375000001,
          "velocity": 0.5590551181102362,
          "duration": 0.23906250000000284
        },
        {
          "name": "A#4",
          "midi": 70,
          "time": 60.3609375000001,
          "velocity": 0.5590551181102362,
          "duration": 0.23906250000000284
        },
        {
          "name": "D5",
          "midi": 74,
          "time": 60.3609375000001,
          "velocity": 0.5590551181102362,
          "duration": 0.23906250000000284
        },
        {
          "name": "A#2",
          "midi": 46,
          "time": 60.3609375000001,
          "velocity": 0.5590551181102362,
          "duration": 0.23906250000000284
        },
        {
          "name": "F4",
          "midi": 65,
          "time": 60.6000000000001,
          "velocity": 0.6220472440944882,
          "duration": 0.29999999999999716
        },
        {
          "name": "G#4",
          "midi": 68,
          "time": 60.6000000000001,
          "velocity": 0.6220472440944882,
          "duration": 0.29999999999999716
        },
        {
          "name": "A#4",
          "midi": 70,
          "time": 60.6000000000001,
          "velocity": 0.6220472440944882,
          "duration": 0.29999999999999716
        },
        {
          "name": "D5",
          "midi": 74,
          "time": 60.6000000000001,
          "velocity": 0.6220472440944882,
          "duration": 0.29999999999999716
        },
        {
          "name": "F3",
          "midi": 53,
          "time": 60.6000000000001,
          "velocity": 0.6850393700787402,
          "duration": 0.29999999999999716
        },
        {
          "name": "F4",
          "midi": 65,
          "time": 60.9609375000001,
          "velocity": 0.5905511811023622,
          "duration": 0.23906250000000284
        },
        {
          "name": "G#4",
          "midi": 68,
          "time": 60.9609375000001,
          "velocity": 0.5905511811023622,
          "duration": 0.23906250000000284
        },
        {
          "name": "A#4",
          "midi": 70,
          "time": 60.9609375000001,
          "velocity": 0.5905511811023622,
          "duration": 0.23906250000000284
        },
        {
          "name": "D5",
          "midi": 74,
          "time": 60.9609375000001,
          "velocity": 0.5905511811023622,
          "duration": 0.23906250000000284
        },
        {
          "name": "F3",
          "midi": 53,
          "time": 60.9609375000001,
          "velocity": 0.5826771653543307,
          "duration": 0.23906250000000284
        },
        {
          "name": "F4",
          "midi": 65,
          "time": 61.2000000000001,
          "velocity": 0.6220472440944882,
          "duration": 0.29999999999999716
        },
        {
          "name": "G#4",
          "midi": 68,
          "time": 61.2000000000001,
          "velocity": 0.6220472440944882,
          "duration": 0.29999999999999716
        },
        {
          "name": "A#4",
          "midi": 70,
          "time": 61.2000000000001,
          "velocity": 0.6220472440944882,
          "duration": 0.29999999999999716
        },
        {
          "name": "D5",
          "midi": 74,
          "time": 61.2000000000001,
          "velocity": 0.6220472440944882,
          "duration": 0.29999999999999716
        },
        {
          "name": "G#3",
          "midi": 56,
          "time": 61.2000000000001,
          "velocity": 0.6377952755905512,
          "duration": 0.6000000000000014
        },
        {
          "name": "F4",
          "midi": 65,
          "time": 61.5609375000001,
          "velocity": 0.5511811023622047,
          "duration": 0.23906250000000284
        },
        {
          "name": "G#4",
          "midi": 68,
          "time": 61.5609375000001,
          "velocity": 0.5511811023622047,
          "duration": 0.23906250000000284
        },
        {
          "name": "A#4",
          "midi": 70,
          "time": 61.5609375000001,
          "velocity": 0.5511811023622047,
          "duration": 0.23906250000000284
        },
        {
          "name": "D5",
          "midi": 74,
          "time": 61.5609375000001,
          "velocity": 0.5511811023622047,
          "duration": 0.23906250000000284
        },
        {
          "name": "F4",
          "midi": 65,
          "time": 61.800000000000104,
          "velocity": 0.6377952755905512,
          "duration": 0.29999999999999716
        },
        {
          "name": "G#4",
          "midi": 68,
          "time": 61.800000000000104,
          "velocity": 0.6377952755905512,
          "duration": 0.29999999999999716
        },
        {
          "name": "A#4",
          "midi": 70,
          "time": 61.800000000000104,
          "velocity": 0.6377952755905512,
          "duration": 0.29999999999999716
        },
        {
          "name": "D5",
          "midi": 74,
          "time": 61.800000000000104,
          "velocity": 0.6377952755905512,
          "duration": 0.29999999999999716
        },
        {
          "name": "A#3",
          "midi": 58,
          "time": 61.800000000000104,
          "velocity": 0.6220472440944882,
          "duration": 0.6000000000000014
        },
        {
          "name": "F4",
          "midi": 65,
          "time": 62.1609375000001,
          "velocity": 0.5354330708661418,
          "duration": 0.23906250000000284
        },
        {
          "name": "G#4",
          "midi": 68,
          "time": 62.1609375000001,
          "velocity": 0.5354330708661418,
          "duration": 0.23906250000000284
        },
        {
          "name": "A#4",
          "midi": 70,
          "time": 62.1609375000001,
          "velocity": 0.5354330708661418,
          "duration": 0.23906250000000284
        },
        {
          "name": "D5",
          "midi": 74,
          "time": 62.1609375000001,
          "velocity": 0.5354330708661418,
          "duration": 0.23906250000000284
        },
        {
          "name": "F4",
          "midi": 65,
          "time": 62.400000000000105,
          "velocity": 0.6692913385826772,
          "duration": 0.29999999999999716
        },
        {
          "name": "A4",
          "midi": 69,
          "time": 62.400000000000105,
          "velocity": 0.6692913385826772,
          "duration": 0.29999999999999716
        },
        {
          "name": "C5",
          "midi": 72,
          "time": 62.400000000000105,
          "velocity": 0.6692913385826772,
          "duration": 0.29999999999999716
        },
        {
          "name": "D#5",
          "midi": 75,
          "time": 62.400000000000105,
          "velocity": 0.6692913385826772,
          "duration": 0.29999999999999716
        },
        {
          "name": "F2",
          "midi": 41,
          "time": 62.400000000000105,
          "velocity": 0.5275590551181102,
          "duration": 0.29999999999999716
        },
        {
          "name": "F4",
          "midi": 65,
          "time": 62.760937500000104,
          "velocity": 0.5984251968503937,
          "duration": 0.23906250000000284
        },
        {
          "name": "A4",
          "midi": 69,
          "time": 62.760937500000104,
          "velocity": 0.5984251968503937,
          "duration": 0.23906250000000284
        },
        {
          "name": "C5",
          "midi": 72,
          "time": 62.760937500000104,
          "velocity": 0.5984251968503937,
          "duration": 0.23906250000000284
        },
        {
          "name": "D#5",
          "midi": 75,
          "time": 62.760937500000104,
          "velocity": 0.5984251968503937,
          "duration": 0.23906250000000284
        },
        {
          "name": "F2",
          "midi": 41,
          "time": 62.760937500000104,
          "velocity": 0.5590551181102362,
          "duration": 0.23906250000000284
        },
        {
          "name": "F4",
          "midi": 65,
          "time": 63.00000000000011,
          "velocity": 0.6377952755905512,
          "duration": 0.29999999999999716
        },
        {
          "name": "A4",
          "midi": 69,
          "time": 63.00000000000011,
          "velocity": 0.6377952755905512,
          "duration": 0.29999999999999716
        },
        {
          "name": "C5",
          "midi": 72,
          "time": 63.00000000000011,
          "velocity": 0.6377952755905512,
          "duration": 0.29999999999999716
        },
        {
          "name": "D#5",
          "midi": 75,
          "time": 63.00000000000011,
          "velocity": 0.6377952755905512,
          "duration": 0.29999999999999716
        },
        {
          "name": "C3",
          "midi": 48,
          "time": 63.00000000000011,
          "velocity": 0.7086614173228346,
          "duration": 0.29999999999999716
        },
        {
          "name": "F4",
          "midi": 65,
          "time": 63.360937500000105,
          "velocity": 0.5669291338582677,
          "duration": 0.23906250000000284
        },
        {
          "name": "A4",
          "midi": 69,
          "time": 63.360937500000105,
          "velocity": 0.5669291338582677,
          "duration": 0.23906250000000284
        },
        {
          "name": "C5",
          "midi": 72,
          "time": 63.360937500000105,
          "velocity": 0.5669291338582677,
          "duration": 0.23906250000000284
        },
        {
          "name": "D#5",
          "midi": 75,
          "time": 63.360937500000105,
          "velocity": 0.5669291338582677,
          "duration": 0.23906250000000284
        },
        {
          "name": "C3",
          "midi": 48,
          "time": 63.360937500000105,
          "velocity": 0.5905511811023622,
          "duration": 0.23906250000000284
        },
        {
          "name": "F4",
          "midi": 65,
          "time": 63.60000000000011,
          "velocity": 0.6299212598425197,
          "duration": 0.29999999999999716
        },
        {
          "name": "A4",
          "midi": 69,
          "time": 63.60000000000011,
          "velocity": 0.6299212598425197,
          "duration": 0.29999999999999716
        },
        {
          "name": "C5",
          "midi": 72,
          "time": 63.60000000000011,
          "velocity": 0.6299212598425197,
          "duration": 0.29999999999999716
        },
        {
          "name": "D#5",
          "midi": 75,
          "time": 63.60000000000011,
          "velocity": 0.6299212598425197,
          "duration": 0.29999999999999716
        },
        {
          "name": "D#3",
          "midi": 51,
          "time": 63.60000000000011,
          "velocity": 0.6850393700787402,
          "duration": 0.5999999999999943
        },
        {
          "name": "F4",
          "midi": 65,
          "time": 63.96093750000011,
          "velocity": 0.5511811023622047,
          "duration": 0.23906249999999574
        },
        {
          "name": "A4",
          "midi": 69,
          "time": 63.96093750000011,
          "velocity": 0.5511811023622047,
          "duration": 0.23906249999999574
        },
        {
          "name": "C5",
          "midi": 72,
          "time": 63.96093750000011,
          "velocity": 0.5511811023622047,
          "duration": 0.23906249999999574
        },
        {
          "name": "D#5",
          "midi": 75,
          "time": 63.96093750000011,
          "velocity": 0.5511811023622047,
          "duration": 0.23906249999999574
        },
        {
          "name": "F4",
          "midi": 65,
          "time": 64.2000000000001,
          "velocity": 0.5984251968503937,
          "duration": 0.29999999999999716
        },
        {
          "name": "A4",
          "midi": 69,
          "time": 64.2000000000001,
          "velocity": 0.5984251968503937,
          "duration": 0.29999999999999716
        },
        {
          "name": "C5",
          "midi": 72,
          "time": 64.2000000000001,
          "velocity": 0.5984251968503937,
          "duration": 0.29999999999999716
        },
        {
          "name": "D#5",
          "midi": 75,
          "time": 64.2000000000001,
          "velocity": 0.5984251968503937,
          "duration": 0.29999999999999716
        },
        {
          "name": "F3",
          "midi": 53,
          "time": 64.2000000000001,
          "velocity": 0.6220472440944882,
          "duration": 0.5999999999999943
        },
        {
          "name": "F4",
          "midi": 65,
          "time": 64.5609375000001,
          "velocity": 0.5433070866141733,
          "duration": 0.23906250000000284
        },
        {
          "name": "A4",
          "midi": 69,
          "time": 64.5609375000001,
          "velocity": 0.5433070866141733,
          "duration": 0.23906250000000284
        },
        {
          "name": "C5",
          "midi": 72,
          "time": 64.5609375000001,
          "velocity": 0.5433070866141733,
          "duration": 0.23906250000000284
        },
        {
          "name": "D#5",
          "midi": 75,
          "time": 64.5609375000001,
          "velocity": 0.5433070866141733,
          "duration": 0.23906250000000284
        },
        {
          "name": "A4",
          "midi": 69,
          "time": 64.8000000000001,
          "velocity": 0.6614173228346457,
          "duration": 0.29999999999999716
        },
        {
          "name": "C5",
          "midi": 72,
          "time": 64.8000000000001,
          "velocity": 0.6614173228346457,
          "duration": 0.29999999999999716
        },
        {
          "name": "D#5",
          "midi": 75,
          "time": 64.8000000000001,
          "velocity": 0.6614173228346457,
          "duration": 0.29999999999999716
        },
        {
          "name": "F5",
          "midi": 77,
          "time": 64.8000000000001,
          "velocity": 0.6614173228346457,
          "duration": 0.29999999999999716
        },
        {
          "name": "F2",
          "midi": 41,
          "time": 64.8000000000001,
          "velocity": 0.5433070866141733,
          "duration": 0.29999999999999716
        },
        {
          "name": "A4",
          "midi": 69,
          "time": 65.16093750000009,
          "velocity": 0.5984251968503937,
          "duration": 0.23906250000000284
        },
        {
          "name": "C5",
          "midi": 72,
          "time": 65.16093750000009,
          "velocity": 0.5984251968503937,
          "duration": 0.23906250000000284
        },
        {
          "name": "D#5",
          "midi": 75,
          "time": 65.16093750000009,
          "velocity": 0.5984251968503937,
          "duration": 0.23906250000000284
        },
        {
          "name": "F5",
          "midi": 77,
          "time": 65.16093750000009,
          "velocity": 0.5984251968503937,
          "duration": 0.23906250000000284
        },
        {
          "name": "F2",
          "midi": 41,
          "time": 65.16093750000009,
          "velocity": 0.5511811023622047,
          "duration": 0.23906250000000284
        },
        {
          "name": "A4",
          "midi": 69,
          "time": 65.40000000000009,
          "velocity": 0.6456692913385826,
          "duration": 0.29999999999999716
        },
        {
          "name": "C5",
          "midi": 72,
          "time": 65.40000000000009,
          "velocity": 0.6456692913385826,
          "duration": 0.29999999999999716
        },
        {
          "name": "D#5",
          "midi": 75,
          "time": 65.40000000000009,
          "velocity": 0.6456692913385826,
          "duration": 0.29999999999999716
        },
        {
          "name": "F5",
          "midi": 77,
          "time": 65.40000000000009,
          "velocity": 0.6456692913385826,
          "duration": 0.29999999999999716
        },
        {
          "name": "C3",
          "midi": 48,
          "time": 65.40000000000009,
          "velocity": 0.6929133858267716,
          "duration": 0.29999999999999716
        },
        {
          "name": "A4",
          "midi": 69,
          "time": 65.76093750000008,
          "velocity": 0.5590551181102362,
          "duration": 0.23906250000000284
        },
        {
          "name": "C5",
          "midi": 72,
          "time": 65.76093750000008,
          "velocity": 0.5590551181102362,
          "duration": 0.23906250000000284
        },
        {
          "name": "D#5",
          "midi": 75,
          "time": 65.76093750000008,
          "velocity": 0.5590551181102362,
          "duration": 0.23906250000000284
        },
        {
          "name": "F5",
          "midi": 77,
          "time": 65.76093750000008,
          "velocity": 0.5590551181102362,
          "duration": 0.23906250000000284
        },
        {
          "name": "C3",
          "midi": 48,
          "time": 65.76093750000008,
          "velocity": 0.5748031496062992,
          "duration": 0.23906250000000284
        },
        {
          "name": "A4",
          "midi": 69,
          "time": 66.00000000000009,
          "velocity": 0.6377952755905512,
          "duration": 0.29999999999999716
        },
        {
          "name": "C5",
          "midi": 72,
          "time": 66.00000000000009,
          "velocity": 0.6377952755905512,
          "duration": 0.29999999999999716
        },
        {
          "name": "D#5",
          "midi": 75,
          "time": 66.00000000000009,
          "velocity": 0.6377952755905512,
          "duration": 0.29999999999999716
        },
        {
          "name": "F5",
          "midi": 77,
          "time": 66.00000000000009,
          "velocity": 0.6377952755905512,
          "duration": 0.29999999999999716
        },
        {
          "name": "D#3",
          "midi": 51,
          "time": 66.00000000000009,
          "velocity": 0.6614173228346457,
          "duration": 0.5999999999999943
        },
        {
          "name": "A4",
          "midi": 69,
          "time": 66.36093750000008,
          "velocity": 0.5511811023622047,
          "duration": 0.23906250000000284
        },
        {
          "name": "C5",
          "midi": 72,
          "time": 66.36093750000008,
          "velocity": 0.5511811023622047,
          "duration": 0.23906250000000284
        },
        {
          "name": "D#5",
          "midi": 75,
          "time": 66.36093750000008,
          "velocity": 0.5511811023622047,
          "duration": 0.23906250000000284
        },
        {
          "name": "F5",
          "midi": 77,
          "time": 66.36093750000008,
          "velocity": 0.5511811023622047,
          "duration": 0.23906250000000284
        },
        {
          "name": "A4",
          "midi": 69,
          "time": 66.60000000000008,
          "velocity": 0.6220472440944882,
          "duration": 0.29999999999999716
        },
        {
          "name": "C5",
          "midi": 72,
          "time": 66.60000000000008,
          "velocity": 0.6220472440944882,
          "duration": 0.29999999999999716
        },
        {
          "name": "D#5",
          "midi": 75,
          "time": 66.60000000000008,
          "velocity": 0.6220472440944882,
          "duration": 0.29999999999999716
        },
        {
          "name": "F5",
          "midi": 77,
          "time": 66.60000000000008,
          "velocity": 0.6220472440944882,
          "duration": 0.29999999999999716
        },
        {
          "name": "F3",
          "midi": 53,
          "time": 66.60000000000008,
          "velocity": 0.6614173228346457,
          "duration": 0.5999999999999943
        },
        {
          "name": "A4",
          "midi": 69,
          "time": 66.96093750000007,
          "velocity": 0.5590551181102362,
          "duration": 0.23906250000000284
        },
        {
          "name": "C5",
          "midi": 72,
          "time": 66.96093750000007,
          "velocity": 0.5590551181102362,
          "duration": 0.23906250000000284
        },
        {
          "name": "D#5",
          "midi": 75,
          "time": 66.96093750000007,
          "velocity": 0.5590551181102362,
          "duration": 0.23906250000000284
        },
        {
          "name": "F5",
          "midi": 77,
          "time": 66.96093750000007,
          "velocity": 0.5590551181102362,
          "duration": 0.23906250000000284
        },
        {
          "name": "G#4",
          "midi": 68,
          "time": 67.20000000000007,
          "velocity": 0.6535433070866141,
          "duration": 0.29999999999999716
        },
        {
          "name": "A#4",
          "midi": 70,
          "time": 67.20000000000007,
          "velocity": 0.6535433070866141,
          "duration": 0.29999999999999716
        },
        {
          "name": "D5",
          "midi": 74,
          "time": 67.20000000000007,
          "velocity": 0.6535433070866141,
          "duration": 0.29999999999999716
        },
        {
          "name": "F5",
          "midi": 77,
          "time": 67.20000000000007,
          "velocity": 0.6535433070866141,
          "duration": 0.29999999999999716
        },
        {
          "name": "A#2",
          "midi": 46,
          "time": 67.20000000000007,
          "velocity": 0.5748031496062992,
          "duration": 0.29999999999999716
        },
        {
          "name": "G#4",
          "midi": 68,
          "time": 67.56093750000007,
          "velocity": 0.5905511811023622,
          "duration": 0.23906250000000284
        },
        {
          "name": "A#4",
          "midi": 70,
          "time": 67.56093750000007,
          "velocity": 0.5905511811023622,
          "duration": 0.23906250000000284
        },
        {
          "name": "D5",
          "midi": 74,
          "time": 67.56093750000007,
          "velocity": 0.5905511811023622,
          "duration": 0.23906250000000284
        },
        {
          "name": "F5",
          "midi": 77,
          "time": 67.56093750000007,
          "velocity": 0.5905511811023622,
          "duration": 0.23906250000000284
        },
        {
          "name": "A#2",
          "midi": 46,
          "time": 67.56093750000007,
          "velocity": 0.5433070866141733,
          "duration": 0.23906250000000284
        },
        {
          "name": "G#4",
          "midi": 68,
          "time": 67.80000000000007,
          "velocity": 0.6614173228346457,
          "duration": 0.29999999999999716
        },
        {
          "name": "A#4",
          "midi": 70,
          "time": 67.80000000000007,
          "velocity": 0.6614173228346457,
          "duration": 0.29999999999999716
        },
        {
          "name": "D5",
          "midi": 74,
          "time": 67.80000000000007,
          "velocity": 0.6614173228346457,
          "duration": 0.29999999999999716
        },
        {
          "name": "F5",
          "midi": 77,
          "time": 67.80000000000007,
          "velocity": 0.6614173228346457,
          "duration": 0.29999999999999716
        },
        {
          "name": "F3",
          "midi": 53,
          "time": 67.80000000000007,
          "velocity": 0.6535433070866141,
          "duration": 0.29999999999999716
        },
        {
          "name": "G#4",
          "midi": 68,
          "time": 68.16093750000006,
          "velocity": 0.5905511811023622,
          "duration": 0.23906250000000284
        },
        {
          "name": "A#4",
          "midi": 70,
          "time": 68.16093750000006,
          "velocity": 0.5905511811023622,
          "duration": 0.23906250000000284
        },
        {
          "name": "D5",
          "midi": 74,
          "time": 68.16093750000006,
          "velocity": 0.5905511811023622,
          "duration": 0.23906250000000284
        },
        {
          "name": "F5",
          "midi": 77,
          "time": 68.16093750000006,
          "velocity": 0.5905511811023622,
          "duration": 0.23906250000000284
        },
        {
          "name": "F3",
          "midi": 53,
          "time": 68.16093750000006,
          "velocity": 0.6062992125984252,
          "duration": 0.23906250000000284
        },
        {
          "name": "G#4",
          "midi": 68,
          "time": 68.40000000000006,
          "velocity": 0.6220472440944882,
          "duration": 0.29999999999999716
        },
        {
          "name": "A#4",
          "midi": 70,
          "time": 68.40000000000006,
          "velocity": 0.6220472440944882,
          "duration": 0.29999999999999716
        },
        {
          "name": "D5",
          "midi": 74,
          "time": 68.40000000000006,
          "velocity": 0.6220472440944882,
          "duration": 0.29999999999999716
        },
        {
          "name": "F5",
          "midi": 77,
          "time": 68.40000000000006,
          "velocity": 0.6220472440944882,
          "duration": 0.29999999999999716
        },
        {
          "name": "G#3",
          "midi": 56,
          "time": 68.40000000000006,
          "velocity": 0.6299212598425197,
          "duration": 0.5999999999999943
        },
        {
          "name": "G#4",
          "midi": 68,
          "time": 68.76093750000005,
          "velocity": 0.5669291338582677,
          "duration": 0.23906250000000284
        },
        {
          "name": "A#4",
          "midi": 70,
          "time": 68.76093750000005,
          "velocity": 0.5669291338582677,
          "duration": 0.23906250000000284
        },
        {
          "name": "D5",
          "midi": 74,
          "time": 68.76093750000005,
          "velocity": 0.5669291338582677,
          "duration": 0.23906250000000284
        },
        {
          "name": "F5",
          "midi": 77,
          "time": 68.76093750000005,
          "velocity": 0.5669291338582677,
          "duration": 0.23906250000000284
        },
        {
          "name": "G#4",
          "midi": 68,
          "time": 69.00000000000006,
          "velocity": 0.6377952755905512,
          "duration": 0.29999999999999716
        },
        {
          "name": "A#4",
          "midi": 70,
          "time": 69.00000000000006,
          "velocity": 0.6377952755905512,
          "duration": 0.29999999999999716
        },
        {
          "name": "D5",
          "midi": 74,
          "time": 69.00000000000006,
          "velocity": 0.6377952755905512,
          "duration": 0.29999999999999716
        },
        {
          "name": "F5",
          "midi": 77,
          "time": 69.00000000000006,
          "velocity": 0.6377952755905512,
          "duration": 0.29999999999999716
        },
        {
          "name": "A#3",
          "midi": 58,
          "time": 69.00000000000006,
          "velocity": 0.6377952755905512,
          "duration": 0.5999999999999943
        },
        {
          "name": "G#4",
          "midi": 68,
          "time": 69.36093750000005,
          "velocity": 0.5984251968503937,
          "duration": 0.23906250000000284
        },
        {
          "name": "A#4",
          "midi": 70,
          "time": 69.36093750000005,
          "velocity": 0.5984251968503937,
          "duration": 0.23906250000000284
        },
        {
          "name": "D5",
          "midi": 74,
          "time": 69.36093750000005,
          "velocity": 0.5984251968503937,
          "duration": 0.23906250000000284
        },
        {
          "name": "F5",
          "midi": 77,
          "time": 69.36093750000005,
          "velocity": 0.5984251968503937,
          "duration": 0.23906250000000284
        },
        {
          "name": "G#4",
          "midi": 68,
          "time": 69.60000000000005,
          "velocity": 0.6299212598425197,
          "duration": 0.29999999999999716
        },
        {
          "name": "A#4",
          "midi": 70,
          "time": 69.60000000000005,
          "velocity": 0.6299212598425197,
          "duration": 0.29999999999999716
        },
        {
          "name": "D5",
          "midi": 74,
          "time": 69.60000000000005,
          "velocity": 0.6299212598425197,
          "duration": 0.29999999999999716
        },
        {
          "name": "F5",
          "midi": 77,
          "time": 69.60000000000005,
          "velocity": 0.6299212598425197,
          "duration": 0.29999999999999716
        },
        {
          "name": "A#2",
          "midi": 46,
          "time": 69.60000000000005,
          "velocity": 0.5590551181102362,
          "duration": 0.29999999999999716
        },
        {
          "name": "G#4",
          "midi": 68,
          "time": 69.96093750000004,
          "velocity": 0.5590551181102362,
          "duration": 0.23906250000000284
        },
        {
          "name": "A#4",
          "midi": 70,
          "time": 69.96093750000004,
          "velocity": 0.5590551181102362,
          "duration": 0.23906250000000284
        },
        {
          "name": "D5",
          "midi": 74,
          "time": 69.96093750000004,
          "velocity": 0.5590551181102362,
          "duration": 0.23906250000000284
        },
        {
          "name": "F5",
          "midi": 77,
          "time": 69.96093750000004,
          "velocity": 0.5590551181102362,
          "duration": 0.23906250000000284
        },
        {
          "name": "A#2",
          "midi": 46,
          "time": 69.96093750000004,
          "velocity": 0.5433070866141733,
          "duration": 0.23906250000000284
        },
        {
          "name": "G#4",
          "midi": 68,
          "time": 70.20000000000005,
          "velocity": 0.6377952755905512,
          "duration": 0.29999999999999716
        },
        {
          "name": "A#4",
          "midi": 70,
          "time": 70.20000000000005,
          "velocity": 0.6377952755905512,
          "duration": 0.29999999999999716
        },
        {
          "name": "D5",
          "midi": 74,
          "time": 70.20000000000005,
          "velocity": 0.6377952755905512,
          "duration": 0.29999999999999716
        },
        {
          "name": "F5",
          "midi": 77,
          "time": 70.20000000000005,
          "velocity": 0.6377952755905512,
          "duration": 0.29999999999999716
        },
        {
          "name": "F3",
          "midi": 53,
          "time": 70.20000000000005,
          "velocity": 0.6535433070866141,
          "duration": 0.29999999999999716
        },
        {
          "name": "G#4",
          "midi": 68,
          "time": 70.56093750000004,
          "velocity": 0.5433070866141733,
          "duration": 0.23906250000000284
        },
        {
          "name": "A#4",
          "midi": 70,
          "time": 70.56093750000004,
          "velocity": 0.5433070866141733,
          "duration": 0.23906250000000284
        },
        {
          "name": "D5",
          "midi": 74,
          "time": 70.56093750000004,
          "velocity": 0.5433070866141733,
          "duration": 0.23906250000000284
        },
        {
          "name": "F5",
          "midi": 77,
          "time": 70.56093750000004,
          "velocity": 0.5433070866141733,
          "duration": 0.23906250000000284
        },
        {
          "name": "F3",
          "midi": 53,
          "time": 70.56093750000004,
          "velocity": 0.5748031496062992,
          "duration": 0.23906250000000284
        },
        {
          "name": "G#4",
          "midi": 68,
          "time": 70.80000000000004,
          "velocity": 0.6141732283464567,
          "duration": 0.29999999999999716
        },
        {
          "name": "A#4",
          "midi": 70,
          "time": 70.80000000000004,
          "velocity": 0.6141732283464567,
          "duration": 0.29999999999999716
        },
        {
          "name": "D5",
          "midi": 74,
          "time": 70.80000000000004,
          "velocity": 0.6141732283464567,
          "duration": 0.29999999999999716
        },
        {
          "name": "F5",
          "midi": 77,
          "time": 70.80000000000004,
          "velocity": 0.6141732283464567,
          "duration": 0.29999999999999716
        },
        {
          "name": "G#3",
          "midi": 56,
          "time": 70.80000000000004,
          "velocity": 0.6850393700787402,
          "duration": 0.5999999999999943
        },
        {
          "name": "G#4",
          "midi": 68,
          "time": 71.16093750000003,
          "velocity": 0.5826771653543307,
          "duration": 0.23906250000000284
        },
        {
          "name": "A#4",
          "midi": 70,
          "time": 71.16093750000003,
          "velocity": 0.5826771653543307,
          "duration": 0.23906250000000284
        },
        {
          "name": "D5",
          "midi": 74,
          "time": 71.16093750000003,
          "velocity": 0.5826771653543307,
          "duration": 0.23906250000000284
        },
        {
          "name": "F5",
          "midi": 77,
          "time": 71.16093750000003,
          "velocity": 0.5826771653543307,
          "duration": 0.23906250000000284
        },
        {
          "name": "G#4",
          "midi": 68,
          "time": 71.40000000000003,
          "velocity": 0.6141732283464567,
          "duration": 0.29999999999999716
        },
        {
          "name": "A#4",
          "midi": 70,
          "time": 71.40000000000003,
          "velocity": 0.6141732283464567,
          "duration": 0.29999999999999716
        },
        {
          "name": "D5",
          "midi": 74,
          "time": 71.40000000000003,
          "velocity": 0.6141732283464567,
          "duration": 0.29999999999999716
        },
        {
          "name": "F5",
          "midi": 77,
          "time": 71.40000000000003,
          "velocity": 0.6141732283464567,
          "duration": 0.29999999999999716
        },
        {
          "name": "A#3",
          "midi": 58,
          "time": 71.40000000000003,
          "velocity": 0.6456692913385826,
          "duration": 0.5999999999999943
        },
        {
          "name": "G#4",
          "midi": 68,
          "time": 71.76093750000003,
          "velocity": 0.6062992125984252,
          "duration": 0.23906250000000284
        },
        {
          "name": "A#4",
          "midi": 70,
          "time": 71.76093750000003,
          "velocity": 0.6062992125984252,
          "duration": 0.23906250000000284
        },
        {
          "name": "D5",
          "midi": 74,
          "time": 71.76093750000003,
          "velocity": 0.6062992125984252,
          "duration": 0.23906250000000284
        },
        {
          "name": "F5",
          "midi": 77,
          "time": 71.76093750000003,
          "velocity": 0.6062992125984252,
          "duration": 0.23906250000000284
        },
        {
          "name": "A4",
          "midi": 69,
          "time": 72.00000000000003,
          "velocity": 0.6062992125984252,
          "duration": 0.29999999999999716
        },
        {
          "name": "C5",
          "midi": 72,
          "time": 72.00000000000003,
          "velocity": 0.6062992125984252,
          "duration": 0.29999999999999716
        },
        {
          "name": "D#5",
          "midi": 75,
          "time": 72.00000000000003,
          "velocity": 0.6062992125984252,
          "duration": 0.29999999999999716
        },
        {
          "name": "F5",
          "midi": 77,
          "time": 72.00000000000003,
          "velocity": 0.6062992125984252,
          "duration": 0.29999999999999716
        },
        {
          "name": "F2",
          "midi": 41,
          "time": 72.00000000000003,
          "velocity": 0.5275590551181102,
          "duration": 0.29999999999999716
        },
        {
          "name": "A4",
          "midi": 69,
          "time": 72.36093750000002,
          "velocity": 0.5590551181102362,
          "duration": 0.23906250000000284
        },
        {
          "name": "C5",
          "midi": 72,
          "time": 72.36093750000002,
          "velocity": 0.5590551181102362,
          "duration": 0.23906250000000284
        },
        {
          "name": "D#5",
          "midi": 75,
          "time": 72.36093750000002,
          "velocity": 0.5590551181102362,
          "duration": 0.23906250000000284
        },
        {
          "name": "F5",
          "midi": 77,
          "time": 72.36093750000002,
          "velocity": 0.5590551181102362,
          "duration": 0.23906250000000284
        },
        {
          "name": "F2",
          "midi": 41,
          "time": 72.36093750000002,
          "velocity": 0.5826771653543307,
          "duration": 0.23906250000000284
        },
        {
          "name": "A4",
          "midi": 69,
          "time": 72.60000000000002,
          "velocity": 0.6377952755905512,
          "duration": 0.29999999999999716
        },
        {
          "name": "C5",
          "midi": 72,
          "time": 72.60000000000002,
          "velocity": 0.6377952755905512,
          "duration": 0.29999999999999716
        },
        {
          "name": "D#5",
          "midi": 75,
          "time": 72.60000000000002,
          "velocity": 0.6377952755905512,
          "duration": 0.29999999999999716
        },
        {
          "name": "F5",
          "midi": 77,
          "time": 72.60000000000002,
          "velocity": 0.6377952755905512,
          "duration": 0.29999999999999716
        },
        {
          "name": "C3",
          "midi": 48,
          "time": 72.60000000000002,
          "velocity": 0.6692913385826772,
          "duration": 0.29999999999999716
        },
        {
          "name": "A4",
          "midi": 69,
          "time": 72.96093750000001,
          "velocity": 0.5826771653543307,
          "duration": 0.23906250000000284
        },
        {
          "name": "C5",
          "midi": 72,
          "time": 72.96093750000001,
          "velocity": 0.5826771653543307,
          "duration": 0.23906250000000284
        },
        {
          "name": "D#5",
          "midi": 75,
          "time": 72.96093750000001,
          "velocity": 0.5826771653543307,
          "duration": 0.23906250000000284
        },
        {
          "name": "F5",
          "midi": 77,
          "time": 72.96093750000001,
          "velocity": 0.5826771653543307,
          "duration": 0.23906250000000284
        },
        {
          "name": "C3",
          "midi": 48,
          "time": 72.96093750000001,
          "velocity": 0.5590551181102362,
          "duration": 0.23906250000000284
        },
        {
          "name": "A4",
          "midi": 69,
          "time": 73.20000000000002,
          "velocity": 0.6377952755905512,
          "duration": 0.29999999999999716
        },
        {
          "name": "C5",
          "midi": 72,
          "time": 73.20000000000002,
          "velocity": 0.6377952755905512,
          "duration": 0.29999999999999716
        },
        {
          "name": "D#5",
          "midi": 75,
          "time": 73.20000000000002,
          "velocity": 0.6377952755905512,
          "duration": 0.29999999999999716
        },
        {
          "name": "F5",
          "midi": 77,
          "time": 73.20000000000002,
          "velocity": 0.6377952755905512,
          "duration": 0.29999999999999716
        },
        {
          "name": "D#3",
          "midi": 51,
          "time": 73.20000000000002,
          "velocity": 0.6535433070866141,
          "duration": 0.5999999999999943
        },
        {
          "name": "A4",
          "midi": 69,
          "time": 73.56093750000001,
          "velocity": 0.5433070866141733,
          "duration": 0.23906250000000284
        },
        {
          "name": "C5",
          "midi": 72,
          "time": 73.56093750000001,
          "velocity": 0.5433070866141733,
          "duration": 0.23906250000000284
        },
        {
          "name": "D#5",
          "midi": 75,
          "time": 73.56093750000001,
          "velocity": 0.5433070866141733,
          "duration": 0.23906250000000284
        },
        {
          "name": "F5",
          "midi": 77,
          "time": 73.56093750000001,
          "velocity": 0.5433070866141733,
          "duration": 0.23906250000000284
        },
        {
          "name": "A4",
          "midi": 69,
          "time": 73.80000000000001,
          "velocity": 0.6535433070866141,
          "duration": 0.29999999999999716
        },
        {
          "name": "C5",
          "midi": 72,
          "time": 73.80000000000001,
          "velocity": 0.6535433070866141,
          "duration": 0.29999999999999716
        },
        {
          "name": "D#5",
          "midi": 75,
          "time": 73.80000000000001,
          "velocity": 0.6535433070866141,
          "duration": 0.29999999999999716
        },
        {
          "name": "F5",
          "midi": 77,
          "time": 73.80000000000001,
          "velocity": 0.6535433070866141,
          "duration": 0.29999999999999716
        },
        {
          "name": "F3",
          "midi": 53,
          "time": 73.80000000000001,
          "velocity": 0.6456692913385826,
          "duration": 0.5999999999999943
        },
        {
          "name": "A4",
          "midi": 69,
          "time": 74.1609375,
          "velocity": 0.5669291338582677,
          "duration": 0.23906250000000284
        },
        {
          "name": "C5",
          "midi": 72,
          "time": 74.1609375,
          "velocity": 0.5669291338582677,
          "duration": 0.23906250000000284
        },
        {
          "name": "D#5",
          "midi": 75,
          "time": 74.1609375,
          "velocity": 0.5669291338582677,
          "duration": 0.23906250000000284
        },
        {
          "name": "F5",
          "midi": 77,
          "time": 74.1609375,
          "velocity": 0.5669291338582677,
          "duration": 0.23906250000000284
        },
        {
          "name": "F4",
          "midi": 65,
          "time": 74.4,
          "velocity": 0.6299212598425197,
          "duration": 0.29999999999999716
        },
        {
          "name": "A4",
          "midi": 69,
          "time": 74.4,
          "velocity": 0.6299212598425197,
          "duration": 0.29999999999999716
        },
        {
          "name": "C5",
          "midi": 72,
          "time": 74.4,
          "velocity": 0.6299212598425197,
          "duration": 0.29999999999999716
        },
        {
          "name": "D#5",
          "midi": 75,
          "time": 74.4,
          "velocity": 0.6299212598425197,
          "duration": 0.29999999999999716
        },
        {
          "name": "F2",
          "midi": 41,
          "time": 74.4,
          "velocity": 0.5196850393700787,
          "duration": 0.29999999999999716
        },
        {
          "name": "F4",
          "midi": 65,
          "time": 74.7609375,
          "velocity": 0.5590551181102362,
          "duration": 0.23906250000000284
        },
        {
          "name": "A4",
          "midi": 69,
          "time": 74.7609375,
          "velocity": 0.5590551181102362,
          "duration": 0.23906250000000284
        },
        {
          "name": "C5",
          "midi": 72,
          "time": 74.7609375,
          "velocity": 0.5590551181102362,
          "duration": 0.23906250000000284
        },
        {
          "name": "D#5",
          "midi": 75,
          "time": 74.7609375,
          "velocity": 0.5590551181102362,
          "duration": 0.23906250000000284
        },
        {
          "name": "F2",
          "midi": 41,
          "time": 74.7609375,
          "velocity": 0.5669291338582677,
          "duration": 0.23906250000000284
        },
        {
          "name": "F4",
          "midi": 65,
          "time": 75,
          "velocity": 0.6377952755905512,
          "duration": 0.29999999999999716
        },
        {
          "name": "A4",
          "midi": 69,
          "time": 75,
          "velocity": 0.6377952755905512,
          "duration": 0.29999999999999716
        },
        {
          "name": "C5",
          "midi": 72,
          "time": 75,
          "velocity": 0.6377952755905512,
          "duration": 0.29999999999999716
        },
        {
          "name": "D#5",
          "midi": 75,
          "time": 75,
          "velocity": 0.6377952755905512,
          "duration": 0.29999999999999716
        },
        {
          "name": "C3",
          "midi": 48,
          "time": 75,
          "velocity": 0.7086614173228346,
          "duration": 0.29999999999999716
        },
        {
          "name": "F4",
          "midi": 65,
          "time": 75.36093749999999,
          "velocity": 0.6141732283464567,
          "duration": 0.23906250000000284
        },
        {
          "name": "A4",
          "midi": 69,
          "time": 75.36093749999999,
          "velocity": 0.6141732283464567,
          "duration": 0.23906250000000284
        },
        {
          "name": "C5",
          "midi": 72,
          "time": 75.36093749999999,
          "velocity": 0.6141732283464567,
          "duration": 0.23906250000000284
        },
        {
          "name": "D#5",
          "midi": 75,
          "time": 75.36093749999999,
          "velocity": 0.6141732283464567,
          "duration": 0.23906250000000284
        },
        {
          "name": "C3",
          "midi": 48,
          "time": 75.36093749999999,
          "velocity": 0.5748031496062992,
          "duration": 0.23906250000000284
        },
        {
          "name": "F4",
          "midi": 65,
          "time": 75.6,
          "velocity": 0.6377952755905512,
          "duration": 0.29999999999999716
        },
        {
          "name": "A4",
          "midi": 69,
          "time": 75.6,
          "velocity": 0.6377952755905512,
          "duration": 0.29999999999999716
        },
        {
          "name": "C5",
          "midi": 72,
          "time": 75.6,
          "velocity": 0.6377952755905512,
          "duration": 0.29999999999999716
        },
        {
          "name": "D#5",
          "midi": 75,
          "time": 75.6,
          "velocity": 0.6377952755905512,
          "duration": 0.29999999999999716
        },
        {
          "name": "D#3",
          "midi": 51,
          "time": 75.6,
          "velocity": 0.6377952755905512,
          "duration": 0.5999999999999943
        },
        {
          "name": "F4",
          "midi": 65,
          "time": 75.96093749999999,
          "velocity": 0.5354330708661418,
          "duration": 0.23906250000000284
        },
        {
          "name": "A4",
          "midi": 69,
          "time": 75.96093749999999,
          "velocity": 0.5354330708661418,
          "duration": 0.23906250000000284
        },
        {
          "name": "C5",
          "midi": 72,
          "time": 75.96093749999999,
          "velocity": 0.5354330708661418,
          "duration": 0.23906250000000284
        },
        {
          "name": "D#5",
          "midi": 75,
          "time": 75.96093749999999,
          "velocity": 0.5354330708661418,
          "duration": 0.23906250000000284
        },
        {
          "name": "F4",
          "midi": 65,
          "time": 76.19999999999999,
          "velocity": 0.6456692913385826,
          "duration": 0.29999999999999716
        },
        {
          "name": "A4",
          "midi": 69,
          "time": 76.19999999999999,
          "velocity": 0.6456692913385826,
          "duration": 0.29999999999999716
        },
        {
          "name": "C5",
          "midi": 72,
          "time": 76.19999999999999,
          "velocity": 0.6456692913385826,
          "duration": 0.29999999999999716
        },
        {
          "name": "D#5",
          "midi": 75,
          "time": 76.19999999999999,
          "velocity": 0.6456692913385826,
          "duration": 0.29999999999999716
        },
        {
          "name": "F3",
          "midi": 53,
          "time": 76.19999999999999,
          "velocity": 0.6299212598425197,
          "duration": 0.5999999999999943
        },
        {
          "name": "F4",
          "midi": 65,
          "time": 76.56093749999998,
          "velocity": 0.5590551181102362,
          "duration": 0.23906250000000284
        },
        {
          "name": "A4",
          "midi": 69,
          "time": 76.56093749999998,
          "velocity": 0.5590551181102362,
          "duration": 0.23906250000000284
        },
        {
          "name": "C5",
          "midi": 72,
          "time": 76.56093749999998,
          "velocity": 0.5590551181102362,
          "duration": 0.23906250000000284
        },
        {
          "name": "D#5",
          "midi": 75,
          "time": 76.56093749999998,
          "velocity": 0.5590551181102362,
          "duration": 0.23906250000000284
        },
        {
          "name": "G4",
          "midi": 67,
          "time": 76.79999999999998,
          "velocity": 0.6692913385826772,
          "duration": 0.29999999999999716
        },
        {
          "name": "A#4",
          "midi": 70,
          "time": 76.79999999999998,
          "velocity": 0.6692913385826772,
          "duration": 0.29999999999999716
        },
        {
          "name": "C5",
          "midi": 72,
          "time": 76.79999999999998,
          "velocity": 0.6692913385826772,
          "duration": 0.29999999999999716
        },
        {
          "name": "E5",
          "midi": 76,
          "time": 76.79999999999998,
          "velocity": 0.6692913385826772,
          "duration": 0.29999999999999716
        },
        {
          "name": "C3",
          "midi": 48,
          "time": 76.79999999999998,
          "velocity": 0.5669291338582677,
          "duration": 0.29999999999999716
        },
        {
          "name": "G4",
          "midi": 67,
          "time": 77.16093749999997,
          "velocity": 0.5590551181102362,
          "duration": 0.23906250000000284
        },
        {
          "name": "A#4",
          "midi": 70,
          "time": 77.16093749999997,
          "velocity": 0.5590551181102362,
          "duration": 0.23906250000000284
        },
        {
          "name": "C5",
          "midi": 72,
          "time": 77.16093749999997,
          "velocity": 0.5590551181102362,
          "duration": 0.23906250000000284
        },
        {
          "name": "E5",
          "midi": 76,
          "time": 77.16093749999997,
          "velocity": 0.5590551181102362,
          "duration": 0.23906250000000284
        },
        {
          "name": "C3",
          "midi": 48,
          "time": 77.16093749999997,
          "velocity": 0.5590551181102362,
          "duration": 0.23906250000000284
        },
        {
          "name": "G4",
          "midi": 67,
          "time": 77.39999999999998,
          "velocity": 0.6377952755905512,
          "duration": 0.29999999999999716
        },
        {
          "name": "A#4",
          "midi": 70,
          "time": 77.39999999999998,
          "velocity": 0.6377952755905512,
          "duration": 0.29999999999999716
        },
        {
          "name": "C5",
          "midi": 72,
          "time": 77.39999999999998,
          "velocity": 0.6377952755905512,
          "duration": 0.29999999999999716
        },
        {
          "name": "E5",
          "midi": 76,
          "time": 77.39999999999998,
          "velocity": 0.6377952755905512,
          "duration": 0.29999999999999716
        },
        {
          "name": "G3",
          "midi": 55,
          "time": 77.39999999999998,
          "velocity": 0.7007874015748031,
          "duration": 0.29999999999999716
        },
        {
          "name": "G4",
          "midi": 67,
          "time": 77.76093749999997,
          "velocity": 0.5669291338582677,
          "duration": 0.23906250000000284
        },
        {
          "name": "A#4",
          "midi": 70,
          "time": 77.76093749999997,
          "velocity": 0.5669291338582677,
          "duration": 0.23906250000000284
        },
        {
          "name": "C5",
          "midi": 72,
          "time": 77.76093749999997,
          "velocity": 0.5669291338582677,
          "duration": 0.23906250000000284
        },
        {
          "name": "E5",
          "midi": 76,
          "time": 77.76093749999997,
          "velocity": 0.5669291338582677,
          "duration": 0.23906250000000284
        },
        {
          "name": "G3",
          "midi": 55,
          "time": 77.76093749999997,
          "velocity": 0.5905511811023622,
          "duration": 0.23906250000000284
        },
        {
          "name": "G4",
          "midi": 67,
          "time": 77.99999999999997,
          "velocity": 0.6299212598425197,
          "duration": 0.29999999999999716
        },
        {
          "name": "A#4",
          "midi": 70,
          "time": 77.99999999999997,
          "velocity": 0.6299212598425197,
          "duration": 0.29999999999999716
        },
        {
          "name": "C5",
          "midi": 72,
          "time": 77.99999999999997,
          "velocity": 0.6299212598425197,
          "duration": 0.29999999999999716
        },
        {
          "name": "E5",
          "midi": 76,
          "time": 77.99999999999997,
          "velocity": 0.6299212598425197,
          "duration": 0.29999999999999716
        },
        {
          "name": "A#3",
          "midi": 58,
          "time": 77.99999999999997,
          "velocity": 0.6456692913385826,
          "duration": 0.5999999999999943
        },
        {
          "name": "G4",
          "midi": 67,
          "time": 78.36093749999996,
          "velocity": 0.5433070866141733,
          "duration": 0.23906250000000284
        },
        {
          "name": "A#4",
          "midi": 70,
          "time": 78.36093749999996,
          "velocity": 0.5433070866141733,
          "duration": 0.23906250000000284
        },
        {
          "name": "C5",
          "midi": 72,
          "time": 78.36093749999996,
          "velocity": 0.5433070866141733,
          "duration": 0.23906250000000284
        },
        {
          "name": "E5",
          "midi": 76,
          "time": 78.36093749999996,
          "velocity": 0.5433070866141733,
          "duration": 0.23906250000000284
        },
        {
          "name": "G4",
          "midi": 67,
          "time": 78.59999999999997,
          "velocity": 0.5905511811023622,
          "duration": 0.29999999999999716
        },
        {
          "name": "A#4",
          "midi": 70,
          "time": 78.59999999999997,
          "velocity": 0.5905511811023622,
          "duration": 0.29999999999999716
        },
        {
          "name": "C5",
          "midi": 72,
          "time": 78.59999999999997,
          "velocity": 0.5905511811023622,
          "duration": 0.29999999999999716
        },
        {
          "name": "E5",
          "midi": 76,
          "time": 78.59999999999997,
          "velocity": 0.5905511811023622,
          "duration": 0.29999999999999716
        },
        {
          "name": "C4",
          "midi": 60,
          "time": 78.59999999999997,
          "velocity": 0.6850393700787402,
          "duration": 0.5999999999999943
        },
        {
          "name": "G4",
          "midi": 67,
          "time": 78.96093749999996,
          "velocity": 0.5590551181102362,
          "duration": 0.23906250000000284
        },
        {
          "name": "A#4",
          "midi": 70,
          "time": 78.96093749999996,
          "velocity": 0.5590551181102362,
          "duration": 0.23906250000000284
        },
        {
          "name": "C5",
          "midi": 72,
          "time": 78.96093749999996,
          "velocity": 0.5590551181102362,
          "duration": 0.23906250000000284
        },
        {
          "name": "E5",
          "midi": 76,
          "time": 78.96093749999996,
          "velocity": 0.5590551181102362,
          "duration": 0.23906250000000284
        },
        {
          "name": "F4",
          "midi": 65,
          "time": 79.19999999999996,
          "velocity": 0.5826771653543307,
          "duration": 0.29999999999999716
        },
        {
          "name": "G#4",
          "midi": 68,
          "time": 79.19999999999996,
          "velocity": 0.5826771653543307,
          "duration": 0.29999999999999716
        },
        {
          "name": "A#4",
          "midi": 70,
          "time": 79.19999999999996,
          "velocity": 0.5826771653543307,
          "duration": 0.29999999999999716
        },
        {
          "name": "D5",
          "midi": 74,
          "time": 79.19999999999996,
          "velocity": 0.5826771653543307,
          "duration": 0.29999999999999716
        },
        {
          "name": "A#2",
          "midi": 46,
          "time": 79.19999999999996,
          "velocity": 0.5669291338582677,
          "duration": 0.29999999999999716
        },
        {
          "name": "F4",
          "midi": 65,
          "time": 79.56093749999995,
          "velocity": 0.5511811023622047,
          "duration": 0.23906250000000284
        },
        {
          "name": "G#4",
          "midi": 68,
          "time": 79.56093749999995,
          "velocity": 0.5511811023622047,
          "duration": 0.23906250000000284
        },
        {
          "name": "A#4",
          "midi": 70,
          "time": 79.56093749999995,
          "velocity": 0.5511811023622047,
          "duration": 0.23906250000000284
        },
        {
          "name": "D5",
          "midi": 74,
          "time": 79.56093749999995,
          "velocity": 0.5511811023622047,
          "duration": 0.23906250000000284
        },
        {
          "name": "A#2",
          "midi": 46,
          "time": 79.56093749999995,
          "velocity": 0.5669291338582677,
          "duration": 0.23906250000000284
        },
        {
          "name": "F4",
          "midi": 65,
          "time": 79.79999999999995,
          "velocity": 0.6377952755905512,
          "duration": 0.29999999999999716
        },
        {
          "name": "G#4",
          "midi": 68,
          "time": 79.79999999999995,
          "velocity": 0.6377952755905512,
          "duration": 0.29999999999999716
        },
        {
          "name": "A#4",
          "midi": 70,
          "time": 79.79999999999995,
          "velocity": 0.6377952755905512,
          "duration": 0.29999999999999716
        },
        {
          "name": "D5",
          "midi": 74,
          "time": 79.79999999999995,
          "velocity": 0.6377952755905512,
          "duration": 0.29999999999999716
        },
        {
          "name": "F3",
          "midi": 53,
          "time": 79.79999999999995,
          "velocity": 0.6456692913385826,
          "duration": 0.29999999999999716
        },
        {
          "name": "F4",
          "midi": 65,
          "time": 80.16093749999995,
          "velocity": 0.5433070866141733,
          "duration": 0.23906250000000284
        },
        {
          "name": "G#4",
          "midi": 68,
          "time": 80.16093749999995,
          "velocity": 0.5433070866141733,
          "duration": 0.23906250000000284
        },
        {
          "name": "A#4",
          "midi": 70,
          "time": 80.16093749999995,
          "velocity": 0.5433070866141733,
          "duration": 0.23906250000000284
        },
        {
          "name": "D5",
          "midi": 74,
          "time": 80.16093749999995,
          "velocity": 0.5433070866141733,
          "duration": 0.23906250000000284
        },
        {
          "name": "F3",
          "midi": 53,
          "time": 80.16093749999995,
          "velocity": 0.5748031496062992,
          "duration": 0.23906250000000284
        },
        {
          "name": "F4",
          "midi": 65,
          "time": 80.39999999999995,
          "velocity": 0.6456692913385826,
          "duration": 0.29999999999999716
        },
        {
          "name": "G#4",
          "midi": 68,
          "time": 80.39999999999995,
          "velocity": 0.6456692913385826,
          "duration": 0.29999999999999716
        },
        {
          "name": "A#4",
          "midi": 70,
          "time": 80.39999999999995,
          "velocity": 0.6456692913385826,
          "duration": 0.29999999999999716
        },
        {
          "name": "D5",
          "midi": 74,
          "time": 80.39999999999995,
          "velocity": 0.6456692913385826,
          "duration": 0.29999999999999716
        },
        {
          "name": "G#3",
          "midi": 56,
          "time": 80.39999999999995,
          "velocity": 0.6614173228346457,
          "duration": 0.5999999999999943
        },
        {
          "name": "F4",
          "midi": 65,
          "time": 80.76093749999994,
          "velocity": 0.5590551181102362,
          "duration": 0.23906250000000284
        },
        {
          "name": "G#4",
          "midi": 68,
          "time": 80.76093749999994,
          "velocity": 0.5590551181102362,
          "duration": 0.23906250000000284
        },
        {
          "name": "A#4",
          "midi": 70,
          "time": 80.76093749999994,
          "velocity": 0.5590551181102362,
          "duration": 0.23906250000000284
        },
        {
          "name": "D5",
          "midi": 74,
          "time": 80.76093749999994,
          "velocity": 0.5590551181102362,
          "duration": 0.23906250000000284
        },
        {
          "name": "F4",
          "midi": 65,
          "time": 80.99999999999994,
          "velocity": 0.6377952755905512,
          "duration": 0.29999999999999716
        },
        {
          "name": "G#4",
          "midi": 68,
          "time": 80.99999999999994,
          "velocity": 0.6377952755905512,
          "duration": 0.29999999999999716
        },
        {
          "name": "A#4",
          "midi": 70,
          "time": 80.99999999999994,
          "velocity": 0.6377952755905512,
          "duration": 0.29999999999999716
        },
        {
          "name": "D5",
          "midi": 74,
          "time": 80.99999999999994,
          "velocity": 0.6377952755905512,
          "duration": 0.29999999999999716
        },
        {
          "name": "A#3",
          "midi": 58,
          "time": 80.99999999999994,
          "velocity": 0.7007874015748031,
          "duration": 0.5999999999999943
        },
        {
          "name": "F4",
          "midi": 65,
          "time": 81.36093749999993,
          "velocity": 0.5590551181102362,
          "duration": 0.23906250000000284
        },
        {
          "name": "G#4",
          "midi": 68,
          "time": 81.36093749999993,
          "velocity": 0.5590551181102362,
          "duration": 0.23906250000000284
        },
        {
          "name": "A#4",
          "midi": 70,
          "time": 81.36093749999993,
          "velocity": 0.5590551181102362,
          "duration": 0.23906250000000284
        },
        {
          "name": "D5",
          "midi": 74,
          "time": 81.36093749999993,
          "velocity": 0.5590551181102362,
          "duration": 0.23906250000000284
        },
        {
          "name": "F4",
          "midi": 65,
          "time": 81.59999999999994,
          "velocity": 0.6377952755905512,
          "duration": 0.29999999999999716
        },
        {
          "name": "A4",
          "midi": 69,
          "time": 81.59999999999994,
          "velocity": 0.6377952755905512,
          "duration": 0.29999999999999716
        },
        {
          "name": "C5",
          "midi": 72,
          "time": 81.59999999999994,
          "velocity": 0.6377952755905512,
          "duration": 0.29999999999999716
        },
        {
          "name": "D#5",
          "midi": 75,
          "time": 81.59999999999994,
          "velocity": 0.6377952755905512,
          "duration": 0.29999999999999716
        },
        {
          "name": "F2",
          "midi": 41,
          "time": 81.59999999999994,
          "velocity": 0.5433070866141733,
          "duration": 0.29999999999999716
        },
        {
          "name": "F4",
          "midi": 65,
          "time": 81.96093749999993,
          "velocity": 0.5905511811023622,
          "duration": 0.23906250000000284
        },
        {
          "name": "A4",
          "midi": 69,
          "time": 81.96093749999993,
          "velocity": 0.5905511811023622,
          "duration": 0.23906250000000284
        },
        {
          "name": "C5",
          "midi": 72,
          "time": 81.96093749999993,
          "velocity": 0.5905511811023622,
          "duration": 0.23906250000000284
        },
        {
          "name": "D#5",
          "midi": 75,
          "time": 81.96093749999993,
          "velocity": 0.5905511811023622,
          "duration": 0.23906250000000284
        },
        {
          "name": "F2",
          "midi": 41,
          "time": 81.96093749999993,
          "velocity": 0.5511811023622047,
          "duration": 0.23906250000000284
        },
        {
          "name": "F4",
          "midi": 65,
          "time": 82.19999999999993,
          "velocity": 0.6220472440944882,
          "duration": 0.29999999999999716
        },
        {
          "name": "A4",
          "midi": 69,
          "time": 82.19999999999993,
          "velocity": 0.6220472440944882,
          "duration": 0.29999999999999716
        },
        {
          "name": "C5",
          "midi": 72,
          "time": 82.19999999999993,
          "velocity": 0.6220472440944882,
          "duration": 0.29999999999999716
        },
        {
          "name": "D#5",
          "midi": 75,
          "time": 82.19999999999993,
          "velocity": 0.6220472440944882,
          "duration": 0.29999999999999716
        },
        {
          "name": "C3",
          "midi": 48,
          "time": 82.19999999999993,
          "velocity": 0.6692913385826772,
          "duration": 0.29999999999999716
        },
        {
          "name": "F4",
          "midi": 65,
          "time": 82.56093749999992,
          "velocity": 0.5433070866141733,
          "duration": 0.23906250000000284
        },
        {
          "name": "A4",
          "midi": 69,
          "time": 82.56093749999992,
          "velocity": 0.5433070866141733,
          "duration": 0.23906250000000284
        },
        {
          "name": "C5",
          "midi": 72,
          "time": 82.56093749999992,
          "velocity": 0.5433070866141733,
          "duration": 0.23906250000000284
        },
        {
          "name": "D#5",
          "midi": 75,
          "time": 82.56093749999992,
          "velocity": 0.5433070866141733,
          "duration": 0.23906250000000284
        },
        {
          "name": "C3",
          "midi": 48,
          "time": 82.56093749999992,
          "velocity": 0.5590551181102362,
          "duration": 0.23906250000000284
        },
        {
          "name": "F4",
          "midi": 65,
          "time": 82.79999999999993,
          "velocity": 0.5905511811023622,
          "duration": 0.29999999999999716
        },
        {
          "name": "A4",
          "midi": 69,
          "time": 82.79999999999993,
          "velocity": 0.5905511811023622,
          "duration": 0.29999999999999716
        },
        {
          "name": "C5",
          "midi": 72,
          "time": 82.79999999999993,
          "velocity": 0.5905511811023622,
          "duration": 0.29999999999999716
        },
        {
          "name": "D#5",
          "midi": 75,
          "time": 82.79999999999993,
          "velocity": 0.5905511811023622,
          "duration": 0.29999999999999716
        },
        {
          "name": "D#3",
          "midi": 51,
          "time": 82.79999999999993,
          "velocity": 0.6692913385826772,
          "duration": 0.5999999999999943
        },
        {
          "name": "F4",
          "midi": 65,
          "time": 83.16093749999992,
          "velocity": 0.5669291338582677,
          "duration": 0.23906250000000284
        },
        {
          "name": "A4",
          "midi": 69,
          "time": 83.16093749999992,
          "velocity": 0.5669291338582677,
          "duration": 0.23906250000000284
        },
        {
          "name": "C5",
          "midi": 72,
          "time": 83.16093749999992,
          "velocity": 0.5669291338582677,
          "duration": 0.23906250000000284
        },
        {
          "name": "D#5",
          "midi": 75,
          "time": 83.16093749999992,
          "velocity": 0.5669291338582677,
          "duration": 0.23906250000000284
        },
        {
          "name": "F4",
          "midi": 65,
          "time": 83.39999999999992,
          "velocity": 0.6141732283464567,
          "duration": 0.29999999999999716
        },
        {
          "name": "A4",
          "midi": 69,
          "time": 83.39999999999992,
          "velocity": 0.6141732283464567,
          "duration": 0.29999999999999716
        },
        {
          "name": "C5",
          "midi": 72,
          "time": 83.39999999999992,
          "velocity": 0.6141732283464567,
          "duration": 0.29999999999999716
        },
        {
          "name": "D#5",
          "midi": 75,
          "time": 83.39999999999992,
          "velocity": 0.6141732283464567,
          "duration": 0.29999999999999716
        },
        {
          "name": "F3",
          "midi": 53,
          "time": 83.39999999999992,
          "velocity": 0.6377952755905512,
          "duration": 0.5999999999999943
        },
        {
          "name": "F4",
          "midi": 65,
          "time": 83.76093749999991,
          "velocity": 0.5590551181102362,
          "duration": 0.23906250000000284
        },
        {
          "name": "A4",
          "midi": 69,
          "time": 83.76093749999991,
          "velocity": 0.5590551181102362,
          "duration": 0.23906250000000284
        },
        {
          "name": "C5",
          "midi": 72,
          "time": 83.76093749999991,
          "velocity": 0.5590551181102362,
          "duration": 0.23906250000000284
        },
        {
          "name": "D#5",
          "midi": 75,
          "time": 83.76093749999991,
          "velocity": 0.5590551181102362,
          "duration": 0.23906250000000284
        },
        {
          "name": "A#3",
          "midi": 58,
          "time": 83.99999999999991,
          "velocity": 0.4645669291338583,
          "duration": 1.2000000000000028
        },
        {
          "name": "D#4",
          "midi": 63,
          "time": 83.99999999999991,
          "velocity": 0.4645669291338583,
          "duration": 1.2000000000000028
        },
        {
          "name": "C2",
          "midi": 36,
          "time": 83.99999999999991,
          "velocity": 0.5826771653543307,
          "duration": 1.2000000000000028
        },
        {
          "name": "C3",
          "midi": 48,
          "time": 83.99999999999991,
          "velocity": 0.5826771653543307,
          "duration": 1.2000000000000028
        },
        {
          "name": "A3",
          "midi": 57,
          "time": 85.19999999999992,
          "velocity": 0.6141732283464567,
          "duration": 1.2000000000000028
        },
        {
          "name": "D#4",
          "midi": 63,
          "time": 85.19999999999992,
          "velocity": 0.6141732283464567,
          "duration": 1.2000000000000028
        },
        {
          "name": "F4",
          "midi": 65,
          "time": 85.19999999999992,
          "velocity": 0.6141732283464567,
          "duration": 1.2000000000000028
        },
        {
          "name": "F2",
          "midi": 41,
          "time": 85.19999999999992,
          "velocity": 0.5748031496062992,
          "duration": 1.2000000000000028
        }
      ],
      "controlChanges": {
        "7": [
          {
            "number": 7,
            "time": 0,
            "value": 0.7874015748031497
          },
          {
            "number": 7,
            "time": 0,
            "value": 0.7874015748031497
          }
        ],
        "10": [
          {
            "number": 10,
            "time": 0,
            "value": 0.4015748031496063
          },
          {
            "number": 10,
            "time": 0,
            "value": 0.4015748031496063
          }
        ],
        "64": [
          {
            "number": 64,
            "time": 0,
            "value": 0
          },
          {
            "number": 64,
            "time": 0,
            "value": 0
          }
        ],
        "91": [
          {
            "number": 91,
            "time": 0,
            "value": 0.3779527559055118
          },
          {
            "number": 91,
            "time": 0,
            "value": 0.3779527559055118
          }
        ],
        "121": [
          {
            "number": 121,
            "time": 0,
            "value": 0
          },
          {
            "number": 121,
            "time": 0,
            "value": 0
          }
        ]
      },
      "id": 2,
      "name": "Piano",
      "instrumentNumber": 0,
      "instrument": "acoustic grand piano",
      "instrumentFamily": "piano",
      "channelNumber": 0,
      "isPercussion": false
    }
  ]
}